<?xml version="1.0" encoding="utf-8"?>
<!-- Generator: Adobe Illustrator 27.4.0, SVG Export Plug-In . SVG Version: 6.00 Build 0)  -->
<svg version="1.1" id="Layer_1" xmlns="http://www.w3.org/2000/svg" x="0px" y="0px"
	 viewBox="0 0 600 60.01" style="enable-background:new 0 0 600 60.01;" xml:space="preserve">
<path d="M228.12,35.53c2.19-0.17,4.14-0.31,6.08-0.48c1.07-0.09,2.13-0.25,3.2-0.36c1.65-0.17,3.28-0.06,4.91-0.8
	c1.46-0.66,3.19-0.64,4.79-1.01c2.54-0.58,5.1-1.08,7.57-1.87c2.82-0.9,5.59-2.01,8.33-3.17c2.84-1.2,5.66-2.48,8.41-3.87
	c2.14-1.09,4.16-2.42,6.26-3.61c0.22-0.13,0.79-0.08,0.83,0.03c0.17,0.44,0.34,0.99,0.22,1.42c-0.1,0.36-0.55,0.67-0.92,0.88
	c-3.68,2.12-7.34,4.3-11.08,6.31c-5.38,2.89-11.1,4.96-16.95,6.5c-4.39,1.15-8.89,1.88-13.35,2.78c-1.96,0.4-3.92,0.88-5.9,1.11
	c-2.85,0.33-5.71,0.49-8.57,0.66c-2.36,0.14-4.72,0.19-7.18,0.51c0.59,0.35,1.16,0.74,1.77,1.03c3.93,1.89,7.84,3.8,11.8,5.6
	c2.18,0.99,4.57,1.53,6.63,2.71c2.73,1.55,5.93,1.56,8.6,3.16c0.12,0.07,0.26,0.13,0.4,0.16c1.78,0.37,3.68,0.44,5.32,1.17
	c2.06,0.92,4.17,0.37,6.21,0.83c5.68,1.3,11.42,1.33,17.18,0.81c1.46-0.13,2.93-0.02,4.38-0.02c0.17-0.42,0.29-0.72,0.38-0.97
	c1.5,0,2.93,0.03,4.36-0.01c0.56-0.02,1.37,0.36,1.48-0.73c0.01-0.05,0.18-0.11,0.28-0.13c1.41-0.31,2.83-0.57,4.22-0.95
	c0.64-0.17,1.22-0.63,1.85-0.84c3.1-1.06,5.87-2.77,8.6-4.63c-1.65-1.61-3.25-3.17-4.84-4.73c1.15-1.27,1.5-1.31,2.44-0.53
	c0.97,0.82,1.91,1.7,2.89,2.5c1.09,0.88,1.59,0.85,2.65-0.08c0.87-0.77,1.76-1.53,2.59-2.35c0.77-0.76,1.49-0.72,2.41,0.06
	c-0.38,0.55-0.73,1.08-1.11,1.6c-0.55,0.76-1.08,1.55-1.68,2.26c-0.29,0.34-0.73,0.54-1.34,0.97c0.81,0.74,1.48,1.63,2.37,2.12
	c2.33,1.27,4.72,2.45,7.16,3.49c1.37,0.58,3,0.57,4.27,1.28c1.54,0.87,3.1,0.62,4.66,0.75c0.53,0.04,1.07,0.01,1.51,0.22
	c0.54,0.2,1.06,0.53,1.61,0.57c1.64,0.15,3.29,0.27,4.93,0.25c4.33-0.03,8.66-0.13,12.99-0.22c0.28-0.01,0.55-0.13,0.83-0.18
	c1.41-0.23,2.81-0.51,4.23-0.67c1.08-0.12,2.11-0.15,3.2-0.57c1.77-0.68,3.74-0.81,5.6-1.27c0.92-0.23,1.77-0.75,2.68-1.02
	c1.06-0.31,2.17-0.42,3.22-0.77c0.82-0.27,1.56-0.81,2.37-1.14c2.08-0.84,4.19-1.59,6.26-2.45c1.26-0.52,2.47-1.16,3.7-1.75
	c3.54-1.71,7.07-3.41,10.6-5.13c0.24-0.12,0.46-0.29,0.9-0.58c-1.84-0.11-3.42-0.2-5.01-0.3c-3.5-0.22-7.06-0.12-10.5-0.74
	c-5.13-0.93-10.37-1.3-15.39-2.99c-1.82-0.61-3.81-0.69-5.64-1.3c-3.8-1.27-7.61-2.58-11.3-4.17c-3.76-1.62-7.4-3.53-11.04-5.42
	c-1.56-0.81-2.99-1.89-4.46-2.88c-0.29-0.2-0.65-0.47-0.73-0.78c-0.11-0.45,0-0.96,0.02-1.44c0.39,0.06,0.83,0.03,1.17,0.21
	c4.21,2.22,8.3,4.71,12.63,6.64c4.61,2.05,9.37,3.77,14.31,4.93c1.56,0.37,3.12,0.59,4.68,0.89c1.49,0.28,2.94,0.82,4.41,1.23
	c0.48,0.13,0.97,0.23,1.47,0.28c2.99,0.31,5.98,0.62,8.98,0.89c0.88,0.08,1.77,0.01,2.7-0.17c-0.22-0.14-0.43-0.3-0.67-0.42
	c-6.47-3.35-11.99-8.09-17.54-12.79c-4.36-3.69-8.69-7.43-13.19-10.91c-3.1-2.4-6.71-3.86-10.35-5.29c-3.04-1.2-6.07-0.56-9.09-0.82
	c-1.57-0.13-2.95,0.39-4.42,0.96c-2.71,1.05-4.74,2.87-6.47,5.1c-0.71,0.92-1.24,2.08-1.55,3.23c-1.04,3.8-0.31,7.3,1.75,10.63
	c2.42,3.9,5.67,6.85,9.28,9.48c5.53,4.04,11.65,6.79,18.05,8.9c1.59,0.52,3.3,0.64,4.95,0.99c0.75,0.16,1.48,0.45,2.23,0.64
	c0.48,0.12,0.97,0.2,1.47,0.25c1.6,0.16,3.21,0.29,4.81,0.45c0.28,0.03,0.59,0.1,0.8,0.27c0.2,0.16,0.37,0.45,0.39,0.71
	c0.01,0.12-0.34,0.38-0.54,0.4c-0.92,0.09-1.86,0.19-2.78,0.14c-3.82-0.22-7.65-0.45-11.36-1.58c-3.05-0.93-6.24-1.51-9.15-2.78
	c-6.61-2.9-13.04-6.22-18.01-11.83c-1.64-1.85-3.22-3.84-4.42-6.01c-1.81-3.29-2.62-7.02-1.84-10.75c0.89-4.22,3.17-7.72,6.74-10.09
	c5.45-3.62,11.41-4.89,17.77-3.66c6.78,1.31,12.93,4.18,18.54,8.35c5.5,4.08,10.36,8.93,15.55,13.39c3.05,2.62,6.33,4.96,9.61,7.29
	c1.6,1.13,3.37,2.03,5.14,2.84c1.29,0.59,2.78,0.7,4.07,1.3c3.01,1.39,6.15,0.75,9.24,0.83c1.01,0.02,2.04-0.56,3.06-0.85
	c2.45-0.7,4.68-1.89,6.65-3.51c4.18-3.45,6.02-7.93,5.4-13.51c-0.37-3.38-1.97-6.04-3.97-8.59c-2.04-2.61-4.86-3.85-7.78-4.62
	c-3.05-0.8-5.84,0.51-8.25,2.49c-1.67,1.37-2.67,3.31-3.44,5.31c-0.29,0.75-0.29,1.71-0.15,2.52c0.64,3.96,2.85,7.62,7.3,7.6
	c1.81-0.01,3.62-0.22,5.65-0.36c-1.25,1.15-2.56,1.87-4.06,1.9c-2.61,0.05-5.08-0.44-6.85-2.74c-0.16-0.2-0.34-0.39-0.52-0.56
	c-3.21-3.02-3.98-8.01-1.84-11.95c2.21-4.07,5.48-6.15,10.07-6.17c3-0.01,5.87,0.3,8.5,1.86c4.91,2.91,7.51,7.47,8.6,13.09
	c0.82,4.24,0.09,8.19-2.08,11.87c-0.17,0.3-0.32,0.61-0.62,1.21c1.7-0.83,3.08-1.57,4.5-2.2c4.94-2.17,9.88-4.33,14.84-6.43
	c1.15-0.49,2.39-0.75,3.6-1.08c2.62-0.72,5.22-1.51,7.86-2.1c5-1.1,10.01-2.14,15.04-3.08c1.82-0.34,3.71-0.29,5.57-0.45
	c7.5-0.67,15.02-1.08,22.55-0.79c2.46,0.09,4.91,0.5,7.37,0.71c4.32,0.37,8.66,0.54,12.95,1.1c4.64,0.6,9.25,1.48,13.84,2.39
	c4.35,0.86,8.68,1.88,13,2.9c3.22,0.75,6.43,1.57,9.63,2.42c3.53,0.95,7.06,1.91,10.55,2.99c3.08,0.95,6.11,2.1,9.17,3.12
	c2.3,0.77,4.63,1.46,6.93,2.21c1.62,0.53,3.23,1.1,4.85,1.67c1.24,0.44,2.48,0.9,3.73,1.32c0.67,0.23,1.37,0.37,2.06,0.58
	c1.33,0.4,2.68,0.75,3.97,1.26c1.57,0.61,3.08,1.36,4.61,2.07c0.31,0.14,0.58,0.39,0.81,0.83c-0.39,0-0.8,0.08-1.17-0.01
	c-2.42-0.61-4.85-1.22-7.25-1.91c-4.53-1.3-9.05-2.68-13.58-3.96c-3.65-1.04-7.32-1.98-10.98-2.98c-2.99-0.81-5.95-1.69-8.95-2.45
	c-1.8-0.46-3.72-0.52-5.45-1.15c-2.73-1-5.64-0.96-8.34-1.82c-3.42-1.09-7.01-0.98-10.42-1.92c-4.21-1.16-8.54-1.22-12.82-1.78
	c-9.15-1.18-18.33-1.66-27.54-1.54c-4.22,0.06-8.44,0.49-12.66,0.76c-0.57,0.04-1.15,0.02-1.72,0.11c-0.89,0.15-1.78,0.36-2.66,0.55
	c-0.45,0.1-0.9,0.26-1.36,0.31c-2.88,0.32-5.79,0.45-8.63,0.97c-2.87,0.52-5.68,1.42-8.51,2.16c-1.45,0.38-2.91,0.75-4.35,1.17
	c-1.1,0.32-2.16,0.74-3.26,1.07s-2.21,0.61-3.31,0.91c-0.17,0.05-0.45,0.06-0.48,0.16c-0.39,1.15-1.46,0.88-2.25,1.17
	c-1.54,0.58-3.09,1.11-4.63,1.7c-3.31,1.26-6.61,2.55-9.91,3.82c0.02,0.15,0.05,0.29,0.07,0.44c1.54-0.2,3.08-0.39,4.62-0.6
	c0.32-0.04,0.63-0.19,0.94-0.21c4.71-0.24,9.35-1.51,14.11-1.16c0.45,0.03,0.92-0.3,1.39-0.43c0.58-0.16,1.16-0.32,1.75-0.41
	c7.79-1.25,15.65-0.82,23.49-0.98c3.36-0.07,6.73-0.43,10.09-0.35c5.01,0.13,10,0.53,15.01,0.84c1.96,0.12,3.92,0.33,5.88,0.5
	c0.14,0.01,0.37-0.03,0.41,0.05c0.77,1.39,2.12,0.7,3.19,0.92c1.96,0.41,3.99,0.46,5.91,0.99c4.4,1.19,8.89,1.95,13.27,3.23
	c2.11,0.62,4.23,1.19,6.35,1.74c0.55,0.14,1.25-0.04,1.68,0.25c1.96,1.34,4.31,1.17,6.42,1.9c2.16,0.75,4.41,1.25,6.63,1.8
	c4.93,1.21,9.88,2.38,14.82,3.55c2.07,0.49,4.14,1,6.22,1.42c0.98,0.2,2,0.15,2.99,0.32c2.73,0.48,5.45,1.01,8.18,1.51
	c0.28,0.05,0.56,0.11,0.85,0.11c6.31,0.01,12.62,0.01,18.93-0.01c0.53,0,1.05-0.19,1.58-0.29c1.04-0.2,2.09-0.35,3.12-0.6
	c1.21-0.29,2.4-0.67,3.61-0.97c1.11-0.28,2.23-0.52,3.36-0.74c0.48-0.09,0.97-0.06,1.59,0.16c-0.19,0.2-0.35,0.53-0.57,0.59
	c-1.35,0.36-2.72,0.62-4.06,0.98c-1.16,0.31-2.29,0.86-3.46,1.03c-3.5,0.52-7.01,0.95-10.52,1.34c-2.21,0.24-4.43,0.49-6.64,0.46
	c-3.35-0.06-6.71-0.06-10.03-0.9c-1.66-0.42-3.5,0-5.24-0.19c-2.76-0.29-5.5-0.78-8.25-1.19c-0.21-0.03-0.41-0.14-0.62-0.15
	c-3.53-0.15-6.9-1.2-10.33-1.96c-7.03-1.57-14.09-2.96-21.12-4.49c-5.77-1.26-11.51-2.68-17.29-3.91c-2.48-0.53-5.02-0.75-7.54-1.09
	c-3.22-0.43-6.44-1.09-9.68-1.2c-6.94-0.25-13.9-0.36-20.85-0.26c-5.54,0.08-11.08,0.52-16.62,0.9c-7.96,0.55-15.91,1.22-23.87,1.78
	c-5.9,0.41-11.79,0.88-17.7,1.02c-3.68,0.09-7.06,0.97-10.33,2.58c-1.93,0.95-3.94,1.76-5.82,2.8c-4.55,2.5-9.47,4.07-14.23,6.05
	c-1.64,0.68-3.33,1.25-5.01,1.82c-3.41,1.16-6.83,2.28-10.23,3.44c-2.59,0.88-5.32,1.09-7.95,1.78c-0.58,0.15-1.22,0.05-1.81,0.17
	c-0.53,0.11-1.03,0.35-1.55,0.53c-0.33,0.11-0.66,0.3-1,0.31c-4.61,0.18-9.23,0.43-13.84,0.45c-2.97,0.01-6.01,0.04-8.89-0.57
	c-5.4-1.15-10.9-2.07-15.89-4.72c-2.7-1.43-5.39-2.85-8.07-4.32c-0.69-0.38-1.25-0.45-1.98,0c-1.9,1.18-3.8,2.36-5.79,3.35
	c-1.86,0.92-3.9,1.46-5.76,2.38c-2.38,1.18-4.91,1.7-7.45,2.21c-0.91,0.19-1.85,0.2-2.76,0.37c-0.33,0.06-0.63,0.34-0.88,0.66
	c-7.09,0.24-14.21,1.32-21.38,0.31c-3-0.42-5.94-1.08-8.9-1.65c-0.53-0.1-1.07-0.12-1.59-0.24c-1.62-0.37-3.25-0.7-4.84-1.17
	c-2.81-0.82-5.6-1.71-8.39-2.6c-0.51-0.16-0.96-0.5-1.46-0.69c-3.71-1.42-7.45-2.75-11.13-4.24c-2.45-0.99-4.81-2.21-7.22-3.31
	c-3.27-1.49-6.57-2.91-9.82-4.46c-2.99-1.42-6.17-1.06-9.3-1.28c-8.15-0.58-16.29-1.16-24.44-1.71c-3.33-0.22-6.66-0.29-9.98-0.53
	c-5.1-0.38-10.19-0.87-15.28-1.27c-1.82-0.14-3.65-0.18-5.48-0.17c-7.27,0.06-14.54,0.11-21.81,0.27c-2.21,0.05-4.42,0.36-6.62,0.67
	c-3.5,0.48-7,0.97-10.47,1.62c-4.22,0.8-8.41,1.77-12.61,2.69c-3.67,0.8-7.35,1.6-11.01,2.43c-3.8,0.87-7.59,1.81-11.4,2.67
	c-3.46,0.79-6.91,1.58-10.39,2.25c-2.59,0.5-5.26,0.65-7.82,1.27c-2.07,0.5-4.11,0.4-6.17,0.42c-1.86,0.02-3.68,0.25-5.52,0.55
	c-2.85,0.45-5.78,0.52-8.67,0.49c-3.26-0.04-6.52-0.23-9.76-0.6c-3.33-0.38-6.67-0.76-9.85-2.04c-1.28-0.52-2.7-0.69-4.04-1.07
	C0.63,47.77,0.33,47.49,0,47.3l0.12-0.33c0.3,0,0.62-0.06,0.91,0.01c2.12,0.5,4.25,1.02,6.37,1.53c0.1,0.03,0.2,0.09,0.31,0.11
	c1.89,0.35,3.77,0.96,5.66,1c6.34,0.13,12.69,0.05,19.03,0.04c0.38,0,0.77-0.13,1.15-0.22c0.87-0.19,1.73-0.44,2.61-0.58
	c4.22-0.65,8.48-1.12,12.67-1.93c3.59-0.7,7.12-1.79,10.67-2.69c3.54-0.89,7.09-1.75,10.63-2.63c2.36-0.59,4.83-0.89,7.03-1.86
	c2.16-0.96,4.41-1.15,6.6-1.76c3.4-0.95,6.77-1.98,10.17-2.9c1.03-0.28,2.13-0.29,3.18-0.52c0.73-0.16,1.41-0.53,2.13-0.74
	c0.33-0.1,0.7-0.04,1.05-0.09c2.48-0.35,5.15-0.21,7.38-1.18c2.54-1.1,5.1-0.61,7.62-1.14c2.5-0.53,5.13-0.35,7.71-0.5
	c1.82-0.1,3.64-0.29,5.46-0.31c2.93-0.03,5.86,0.05,8.8,0.09c5.48,0.08,10.97,0.12,16.45,0.27c1.92,0.05,3.84,0.37,5.75,0.56
	c1.71,0.17,3.52,0.02,5.11,0.57c3.4,1.18,6.93,0.18,10.33,1c1.39,0.33,2.83,0.38,4.24,0.62c1.15,0.19,2.29,0.57,3.45,0.67
	c1.35,0.12,2.71,0.03,4.36,0.03c-1.77-0.69-3.3-1.27-4.82-1.88c-2.59-1.04-5.16-2.12-7.76-3.12c-0.93-0.36-1.93-0.54-2.89-0.81
	c-0.67-0.19-1.43-0.18-1.78-1.02c-0.05-0.13-0.36-0.17-0.55-0.23c-1.57-0.5-3.13-1.02-4.7-1.48c-0.82-0.24-1.67-0.38-2.5-0.6
	c-3.94-1.04-7.87-2.16-11.83-3.12c-1.8-0.44-3.67-0.57-5.52-0.82c-0.85-0.11-1.71-0.17-2.56-0.25c-0.39-0.04-0.82,0.04-1.17-0.1
	c-3.24-1.24-6.64-0.91-9.97-1.1c-4.94-0.28-9.88-0.58-14.82-0.53c-4.9,0.05-9.81,0.4-14.7,0.83c-5.66,0.49-11.31,1.13-16.95,1.84
	c-2.11,0.27-4.17,0.92-6.26,1.37c-0.59,0.13-1.21,0.12-1.81,0.23c-2.53,0.51-5.07,1.01-7.59,1.58c-2.15,0.49-4.29,1.07-6.43,1.6
	c-0.69,0.17-1.4,0.27-2.1,0.41c-3.01,0.64-6.05,1.12-9.01,1.95c-5.29,1.48-10.52,3.22-15.79,4.76c-2.95,0.87-5.95,1.55-8.93,2.34
	c-0.65,0.17-1.26,0.49-1.91,0.66c-2.35,0.63-4.7,1.22-7.06,1.82c-0.44,0.11-0.89,0.16-1.33,0.24c-0.04-0.11-0.09-0.21-0.13-0.32
	c0.75-0.44,1.47-0.93,2.25-1.3c1.23-0.59,2.49-1.13,3.76-1.63c0.89-0.35,1.81-0.7,2.75-0.86c1.45-0.26,2.82-0.67,4.14-1.37
	c0.69-0.36,1.5-0.45,2.25-0.7c1.03-0.35,2.05-0.75,3.08-1.11c2.06-0.72,4.1-1.48,6.18-2.14c4.71-1.48,9.42-2.98,14.16-4.35
	c4.96-1.43,9.93-2.81,14.93-4.06c5.23-1.3,10.55-2.24,15.75-3.68c3.29-0.92,6.61-1.21,9.95-1.62c4.65-0.58,9.29-1.29,13.96-1.66
	c5.38-0.43,10.75-1.27,16.18-0.95c4.97,0.29,9.94,0.54,14.91,0.81c2.47,0.14,4.96,0.13,7.4,0.49c3.43,0.51,6.83,1.26,10.23,1.97
	c2.87,0.6,5.73,1.26,8.57,1.96c7.42,1.84,14.45,4.8,21.34,8.14c1.87,0.9,3.74,1.8,5.75,2.54c-0.23-0.39-0.47-0.77-0.69-1.17
	c-3.1-5.55-2.95-11.16-0.31-16.83c2.21-4.73,5.54-8.13,10.59-9.3c3.18-0.74,6.41-0.8,9.51,0.48c4.49,1.85,8.11,7.83,5.94,13.72
	c-1.57,4.25-6.46,7.86-10.75,6.58c-1.03-0.3-1.98-0.88-2.97-1.33c0.04-0.15,0.08-0.31,0.12-0.46c0.87,0.11,1.75,0.31,2.62,0.33
	c1.49,0.04,3.02,0.14,4.48-0.11c1.98-0.33,3.47-1.61,4.33-3.48c0.57-1.26,1.19-2.61,1.28-3.96c0.28-3.88-2.65-8.11-6.35-9.48
	c-0.96-0.36-1.96-0.85-2.94-0.86c-5.24-0.06-9.06,2.59-11.96,6.96c-2.52,3.79-2.95,8.01-1.98,12.27c0.75,3.26,2.82,5.86,5.45,7.9
	c2.51,1.96,5.44,2.93,8.36,3.94c0.56,0.19,1.2,0.15,1.81,0.15c1.33,0.01,2.66-0.12,3.98,0.01c2.08,0.21,3.81-0.95,5.72-1.34
	c1.76-0.36,3.23-1.33,4.86-1.85c1.54-0.5,2.76-1.44,3.96-2.3c3.35-2.41,6.58-5.01,9.7-7.73c5.24-4.56,10.22-9.46,15.91-13.45
	c3.9-2.74,8.13-4.76,12.65-6.2c3.6-1.15,7.24-1.93,10.99-1.51c5.82,0.66,11.15,2.55,14.95,7.49c1.04,1.36,1.77,3.03,2.39,4.66
	c2.18,5.76,0.44,10.82-2.9,15.48c-3.26,4.55-7.34,8.14-12.2,10.72c-3.21,1.71-6.41,3.51-9.78,4.82c-6.27,2.44-12.81,3.7-19.52,3.88
	c-1.06,0.03-2.23,0.33-3.25-0.92c0.59-0.25,1.04-0.57,1.52-0.62c1.63-0.2,3.28-0.28,4.91-0.46c0.51-0.06,1-0.29,1.51-0.41
	c0.86-0.21,1.72-0.43,2.59-0.57c5.59-0.86,10.75-3.02,15.75-5.62c3.98-2.07,7.67-4.64,11.04-7.66c2.58-2.31,4.61-5.09,6.1-8.27
	c1.55-3.29,1.45-6.68,0.08-9.93c-0.58-1.37-1.81-2.46-2.8-3.63c-1.34-1.58-3.21-2.26-4.95-3.21c-1.45-0.79-2.9-0.93-4.44-0.87
	c-0.5,0.02-1.01,0.05-1.51,0c-5.6-0.64-10.42,1.72-15.08,4.43c-5.86,3.39-10.67,8.25-15.86,12.58c-3.65,3.05-7.39,5.99-11.19,8.84
	C233.1,32.5,230.71,33.86,228.12,35.53L228.12,35.53z"/>
</svg>
