<?xml version="1.0" encoding="utf-8"?>
<!-- Generator: Adobe Illustrator 27.4.0, SVG Export Plug-In . SVG Version: 6.00 Build 0)  -->
<svg version="1.1" id="Layer_1" xmlns="http://www.w3.org/2000/svg" x="0px" y="0px"
	 viewBox="0 0 66.1 437.4" style="enable-background:new 0 0 66.1 437.4;" xml:space="preserve">
<path d="M18.8,0c1.1,0.9,1.1,1.6,0.4,2.3C17.8,4,16.5,5.8,15,7.4c-2.8,3.1-4.8,6.6-6.2,10.5c-0.9,2.5-1.5,5.2-2.6,7.6
	c-1,2.2-0.7,4.6-1.2,6.8c-1,4.1-1.2,8.3-1.2,12.5c0,4.5,0.7,9,1.1,13.5c0.1,0.7,0.3,1.3,0.3,2c-0.1,2.9,0.9,5.6,1.5,8.3
	c0.8,3.5,1.7,6.9,2.7,10.3c0.2,0.7,0.7,1.4,1,2.1c2.2,5.4,4.4,10.9,6.7,16.3c1.3,3.1,2.8,6.2,4.3,9.2c0.1,0.1,0.2,0.2,0.4,0.4
	c0.3-6,0.5-11.9,1-17.7c0.2-2.9,1-5.8,1.4-8.7c1.1-6.9,2.5-13.7,4.6-20.4c1-3.1,2.2-6.2,3.5-9.2c1.9-4.4,3.9-8.7,6-12.9
	c0.8-1.7,1.9-3.2,2.9-4.8c0.2-0.3,0.4-0.7,0.7-0.8c0.5-0.2,1.1-0.2,1.7-0.3c-0.1,0.5-0.1,1-0.3,1.4c-2.8,5.4-5.7,10.7-7.9,16.3
	c-2.1,5.3-3.6,10.7-5.1,16.1c-0.6,2.3-0.7,4.8-1.3,7.1c-1.5,5.9-1.6,12-1.8,18.1c0.3-0.6,0.6-1.2,0.9-1.7
	c3.2-6.3,7.5-11.8,11.8-17.3c4.4-5.6,9-11.1,13.3-16.7c3-3.9,5-8.4,6.6-13.2c1.5-4.4,1.7-8.8,0.8-13.1c-1-5-3.7-9.4-8.4-11.7
	c-3.7-1.8-7.7-1.6-11.4,0.3c-3.7,1.9-6.9,4.6-9.6,7.9c-5.4,6.9-9.5,14.4-12.1,22.8c-1.6,5.1-2.5,10.2-3.1,15.5
	c-0.1,0.9-0.3,1.8-0.4,2.7c-0.1,0.4-0.3,0.7-0.4,1.1c-0.1,0-0.3,0-0.4,0c-0.2-0.5-0.5-1.1-0.5-1.6c-0.2-4.6,0.2-9.1,1.3-13.5
	c1-3.9,1.8-7.9,3.2-11.6c3.2-8.2,7.2-16.1,13.8-22.2c3.3-3.1,6.9-5.6,11.4-6.6c6.5-1.5,11.8,0.9,16,5.7c4.8,5.5,6.5,12.3,5.9,19.5
	c-0.8,9.2-4.5,17.2-9.7,24.6c-4.4,6.3-9.6,11.8-14.4,17.7c-3,3.7-5.7,7.7-8.4,11.6c-2.4,3.4-3.5,7.4-4.7,11.4
	c-1.1,3.5-0.5,6.9-0.5,10.4c0,1.4,1,2.8,1.5,4.2c0.7,1.7,1.1,3.5,2,5c3.5,5.7,8.4,8.7,15.2,8.2c6.9-0.4,13.8-5.6,15.6-13.6
	c0.9-4.3-1.2-9.6-5.1-12.2c-3.7-2.5-7.3-2.6-11.1-0.3c-1.8,1.1-3.1,2.7-3.6,5c-0.4,2.4-0.4,4.7,0.1,7.1c0.1,0.2,0.1,0.5,0.1,0.7
	c0,0.1-0.1,0.1-0.2,0.4c-1-1.3-1.6-2.7-1.7-4.2c-0.3-3.2,0.6-5.9,3-8.2c1.6-1.6,3.2-2.9,5.3-3.6c0.8-0.2,1.6-0.2,2.4-0.3
	c6.7-0.5,12.7,5.6,12.7,12.7c0,3.1-0.3,6.1-1.6,8.9c-2.9,6.2-8,9.4-14.3,10.9c-4.8,1.1-9.4,0.3-13.5-2.4c-0.3-0.2-0.6-0.3-1.2-0.7
	c0.2,0.6,0.2,0.9,0.3,1.2c2.8,6.9,5.8,13.7,8.4,20.6c1.6,4.5,2.8,9.1,3.9,13.8c2,8.8,3.5,17.7,4.1,26.8c0.9,14,1.1,28.1,0.5,42.1
	c-0.3,7.9-0.5,15.8-2.1,23.6c-1.2,6-2.2,12-3.8,17.9c-1.2,4.8-3,9.5-4.8,14.1c-1.9,5-4.1,9.9-6.2,14.8c-0.1,0.3-0.2,0.7-0.4,1.3
	c0.5-0.2,0.7-0.2,0.9-0.4c5.7-4,11.8-4,17.9-1.4c4.7,2,8.5,5.1,10.5,10c1.9,4.7,2.1,9.4,0.1,14.1c-1.6,4-6.3,6.9-10.5,7.1
	c-4.7,0.3-7.8-2.3-10.4-5.8c-2.1-2.9-1.8-7.9,0.6-10.7c-0.1,0.6-0.1,1-0.2,1.4c-0.1,2-0.4,4-0.3,5.9c0.2,3.2,2.1,5.2,4.9,6.6
	c2.1,1,4.3,1.4,6.3,0.8c2.4-0.7,4.6-2,6.2-4.1c2.5-3.6,3.4-7.4,1.9-11.7c-2.8-8.2-11.9-13.7-20.8-11.1c-3.9,1.1-7.1,3.6-9.1,7.2
	c-1,1.8-1.5,3.7-2.3,5.6c-0.5,1.1-0.9,2.3-1.4,3.5c-0.2,0.4-0.2,0.9-0.2,1.3c0,2.4-0.1,4.8,0,7.1c0,1,0.5,1.9,0.7,2.9
	c0.7,3.2,1.8,6.4,3.4,9.2c1.9,3.4,4.1,6.7,6.5,9.7c3.9,4.9,8.1,9.5,12.1,14.3c4.9,6,9.3,12.3,12.2,19.6c2.6,6.6,4,13.4,2.5,20.4
	c-1.4,6.1-4.1,11.7-9.7,15c-4.1,2.4-8.4,3.2-13.1,1.6c-3.9-1.3-7-3.5-10-6.2c-5.8-5.3-9.5-12.1-12.6-19.2
	c-3.7-8.6-5.8-17.7-5.8-27.1c0-0.8,0.2-1.7,0.4-2.5c0.2,0,0.4,0,0.6,0c0.2,0.7,0.4,1.4,0.5,2.1c0.2,1.9,0.3,3.8,0.6,5.7
	c0.5,2.7,1,5.4,1.7,8c2.7,10.4,7.5,19.8,14.5,27.9c2.4,2.7,5.3,4.9,8.6,6.4c3.4,1.6,7,1.8,10.4,0.4c3.2-1.3,5.5-3.9,7.1-7
	c2.7-4.9,2.7-10.3,1.8-15.5c-0.5-3-2-6-3.3-8.8c-2.8-6.2-7.3-11.3-11.5-16.6c-4.8-6-9.5-12.1-14.1-18.3c-1.7-2.2-2.8-4.9-4.2-7.3
	c-0.1-0.2-0.2-0.4-0.6-0.5c0.1,2,0.1,4,0.3,6c0.2,2.7,0.5,5.5,0.9,8.2c0.4,2.7,1,5.5,1.7,8.1c1,4.2,2.1,8.4,3.3,12.5
	c2.4,8.2,6.2,15.6,10.3,23c0.2,0.4,0.1,0.9,0.2,1.4c-0.5-0.1-1.1-0.1-1.6-0.3c-0.3-0.1-0.5-0.5-0.7-0.9c-3.5-5.6-6.7-11.4-9-17.6
	c-1.6-4.4-3.4-8.8-4.6-13.3c-1.5-6-2.6-12.1-3.8-18.2c-1.6-8-1.7-16.2-2-24.4c0-0.1,0-0.2-0.1-0.7c-0.6,1.2-1.1,2.1-1.6,3
	c-2.2,4.8-4.4,9.7-6.5,14.5c-1,2.3-1.6,4.9-2.7,7.1c-1.6,3.1-2,6.5-3.3,9.7c-0.7,1.8-0.8,3.8-1.3,5.7c-1.4,5-1.5,10.2-2.2,15.4
	c-0.8,5.8,0.1,11.6,0.3,17.3c0.1,2.3,0.3,4.7,1,6.9c1.7,5.5,3.2,11.1,6.4,16c2.1,3.1,4.6,5.9,7,8.8c0.6,0.8,1.1,1.5,0.2,2.6
	c-2-1.1-3.4-2.8-4.8-4.5c-0.2-0.3-0.5-0.7-0.7-0.7c-1.1-0.1-1.6-0.9-2.1-1.7c-3.9-6.3-7.1-13-8.9-20.3c-2.5-10.1-3-20.4-2.1-30.7
	c0.3-3.8,1-7.5,1.7-11.3c0.7-3.8,1.5-7.5,2.5-11.3c0.7-2.6,1.7-5.2,2.6-7.7c0.9-2.6,2.1-5.2,2.8-7.8c0.3-1.3,0-2.8-0.1-4.2
	c-0.4-6.1-1.4-12.2-0.3-18.3c0.7-3.9,0.4-7.8,0.9-11.7c0.4-2.7,0.9-5.3,1.3-8c0.3-2.1,0.4-4.1,0.8-6.2c1.2-5.7,2.4-11.4,3.7-17.1
	c1.4-6.5,2.8-13,4.2-19.5c1.4-6.9,2.8-13.8,3.9-20.7c0.8-4.9,1.4-9.8,1.5-14.8c0.1-4.7-0.5-9.4-1-14c-0.3-3.3-0.8-6.5-1.3-9.8
	c-0.7-4.3-1.6-8.7-2.5-13c-1.2-5.8-2.5-11.5-3.7-17.3c-1.1-5.2-2.2-10.3-3.3-15.5c-0.6-2.6-1.3-5.2-1.7-7.9c-0.8-5-1.7-9.9-2-14.9
	c-0.3-4-0.9-8-1.1-12c-0.2-4.1,0.2-8.3,0.4-12.5c0.1-2.3,0.3-4.6,0.5-6.8c0-0.3,0-0.6-0.1-0.9c-0.9-2.6-2-5.2-2.9-7.8
	c-1-2.8-2-5.6-2.7-8.5c-1.1-4.5-2-9-3-13.5c-2.2-10-1.9-20.1-0.7-30.1C1.6,30.2,3,23.9,5.8,18.1c1.8-3.8,3.8-7.5,5.8-11.1
	c0.3-0.6,1-0.9,1.5-1.4c0.6-0.5,1.2-1,1.7-1.5C16.1,2.7,17.5,1.3,18.8,0z M27.8,299.6c0.1,0,0.2,0,0.2,0c0.5-1.3,1-2.6,1.5-3.9
	c1.3-3.6,2.6-7.3,4.1-10.8c0.9-2.2,1.4-4.6,2.4-6.8c1.4-3.2,2-6.7,2.9-10.1c1-4.1,2.3-8.1,2.9-12.2c1-5.8,1.6-11.7,2.2-17.5
	c0.5-5.3,0.8-10.6,0.8-15.8c0-10.2-0.2-20.4-1.7-30.5c-0.6-4.1-1.1-8.3-1.8-12.4c-0.8-4.2-1.8-8.4-3-12.5c-0.9-3.1-1.6-6.3-3.1-9.2
	c-1.3-2.5-1.8-5.3-2.6-8c-0.3-0.9-0.6-1.8-0.9-2.7c-1.1-2.8-2.2-5.6-3.2-8.4c-0.1-0.3-0.2-0.7-0.3-1.1c-0.2,0.5-0.2,1-0.2,1.4
	c0.5,4.3,1,8.7,1.4,13c0.6,5.8,1.3,11.6,1.7,17.5c0.5,6.1,0.7,12.3,1,18.4c0.1,2.7,0,5.4,0.1,8.1c0.1,2.3,0.4,4.7,0.3,7
	c-0.1,8.5-0.3,17-0.4,25.5c0,3,0.4,5.9,0.4,8.9c0,6.1-0.2,12.2-0.4,18.2c-0.1,3.5-0.4,7.1-0.7,10.6c-0.3,3.3-0.9,6.6-1.3,9.9
	c-0.5,5.3-1,10.6-1.5,15.9C28.4,294.5,28.1,297,27.8,299.6z M11.6,100.2c-0.2,0-0.3,0-0.5,0.1c0,2.8,0,5.6,0,8.5
	c0,3.2,0.1,6.3,0.2,9.5c0,1,0.1,1.9,0.3,2.8c0.5,2.9,0.9,5.9,1.4,8.8c0.8,4.7,1.4,9.4,2.4,14.1c1.2,5.5,2.7,10.9,4.1,16.4
	c0.4,1.4,0.7,2.8,1,4.2c0.8,3.2,1.7,6.4,2.5,9.6c0.7,2.6,1.4,5.2,2,7.8c0.1,0,0.3-0.1,0.4-0.1c-0.2-2.4-0.6-4.8-0.7-7.3
	c-0.3-4.9-0.5-9.8-0.8-14.7c-0.6-10.3-1.3-20.5-1.9-30.8c-0.2-3.2-0.7-6.3-2-9.3c-2.8-6.4-5.5-12.8-8.3-19.2
	C11.9,100.5,11.7,100.3,11.6,100.2z M11.2,337.2c0.1,0,0.3,0.1,0.4,0.1c0.1-0.3,0.3-0.5,0.4-0.8c1.9-4.5,3.6-9,5.6-13.4
	c2.3-5.1,4.6-10,4.5-15.9c-0.1-5,0.3-10,0.6-15c0.5-7.1,1.1-14.2,1.6-21.3c0.3-4,0.6-8,0.9-11.9c0.1-1.2,0-2.4,0-3.5
	c-0.4,0.9-0.9,1.8-1.2,2.7c-0.8,3.1-1.5,6.2-2.3,9.3c-1,4-2,7.9-2.9,11.8c-1.6,6.9-3.4,13.7-4.8,20.6c-1.1,5.5-1.8,11.1-2.7,16.7
	c-0.1,0.9-0.2,1.7-0.2,2.6c-0.1,3-0.1,6-0.1,9C11.2,331.3,11.2,334.2,11.2,337.2z"/>
</svg>
