<?xml version="1.0" encoding="utf-8"?>
<!-- Generator: Adobe Illustrator 27.4.0, SVG Export Plug-In . SVG Version: 6.00 Build 0)  -->
<svg version="1.1" id="Layer_1" xmlns="http://www.w3.org/2000/svg" x="0px" y="0px"
	 viewBox="0 0 452.1 600" style="enable-background:new 0 0 452.1 600;" xml:space="preserve">
<style type="text/css">
	.st0{fill:#FFFFFF;}
</style>
<g>
	<path d="M314.2,278.3c2.4-0.1,4.8,0.1,7.1-0.3c1.1-0.2,2.1-1.2,3.2-1.9c-0.8-0.9-1.6-1.8-2.3-2.7c-0.7-0.8-1.4-1.7-2.1-2.5
		c-0.3-0.4-0.6-0.8-1-1.1c-6.1-5-12.3-9.9-18.3-14.9c-2.3-1.9-4.4-4.3-6.6-6.5c0.5-0.5,0.8-0.7,1-0.8c1.2-0.8,3.5-1.6,3.5-2.3
		c-0.1-1.9-0.7-4.3-2-5.5c-7.7-7.1-15.7-13.8-23.6-20.7c-10.7-9.3-21.4-18.6-32-28c-9.1-8.1-18-16.4-27.1-24.4
		c-6.6-5.9-13.4-11.5-20-17.4c-1.7-1.6-3-3.8-4.6-5.9c0.5-0.2,1.1-0.7,1.8-0.9c2.3-0.8,3.1-3.6,1.1-4.5c-3.3-1.5-4-5-6.5-7.2
		c-7.8-7.1-15.1-14.9-22.9-22.1c-4.2-3.9-9.2-7-13.5-10.8c-3.9-3.4-7.3-7.4-10.9-11.1c-1.5-1.5-3-3-4.4-4.5
		c-0.3-0.3-0.3-0.9-0.8-2.5c1.9,0.8,3,1.1,4.1,1.7c1.7,0.9,3.3,2,5.1,2.8c0.7,0.3,2.2,0,2.4-0.5c0.4-0.8,0.3-2.2-0.2-2.9
		c-4.3-7.6-10.5-13.4-16.8-19c-3.5-3.1-6.7-6.6-10-10c-0.4-0.4-0.8-0.9-0.8-1.3c0.1-1.5,0.3-3,0.5-4.8c-0.4,0.2-0.1,0,0,0
		c2.1,2.2,5.3,3.1,7.4,5c1.7,1.5,3.3,2.7,5.4,3.3c0.8,0.3,1.8-0.2,2.7-0.3c-0.1-1.1,0.1-2.5-0.4-3.3c-3.1-4-6.6-7.6-9.5-11.7
		c-1-1.4-0.9-3.7-1.3-5.5c0.3-0.2,0.6-0.3,0.9-0.5c0.5,0.4,1,0.8,1.5,1.1c0.9,0.7,1.9,1.5,2.9,2.2c0.8,0.6,1.7,1.3,2.6,1.8
		c1,0.6,2.1,1.1,3.2,1.7c0.2-1.1,0.6-2.2,0.4-3.2c-1.1-6-6.2-8.7-9.8-12.6c-3.9-4.2-8.9-7.5-13-11.5c-3.2-3.1-6-6.8-9-10.3
		c0.4-0.2,2.4,1.7,2.2-1c0-0.2,1.5-0.8,2.1-0.6c1.7,0.6,3.3,1.3,4.8,2.2c2.7,1.8,5.2,4,7.9,5.7c0.5,0.3,1.8-0.4,2.6-0.9
		c0.7-0.4,1.3-1.2,1.9-1.8c0.6,0.7,1.2,1.5,1.9,2.2c0.6,0.6,1.2,1.6,2,1.8c1.6,0.5,3.2,0.7,3.5,3c0.1,0.5,1.4,1.1,2,1
		c0.6-0.1,1.1-1,1.6-1.6c0.5-0.6,1.2-1.9,1.5-1.9c0.8,0.2,1.5,1,2.2,1.6c2.3,2.1,4.5,4.2,6.8,6.2c8.1,7.2,16.2,14.3,24.3,21.5
		c6.2,5.5,12.5,10.8,18.7,16.3c19,17,37.9,34,56.8,51c2.5,2.2,4.2,5.2,4.4,8.8c0.1,2.7,1.5,3.7,4.1,3.6c2.2-0.1,4.5,0.5,6.8,1
		c0.6,0.2,1.5,1.4,1.5,2c-0.7,4.1,1.1,6.4,4.5,8c2.3,1,4.4,2.5,7.2,4.2c1.2,5.2,5.6,7.5,11.2,8.5c0.8,0.1,1.9,1.7,1.8,2.6
		c-0.1,2.8,1,4.1,3.4,5c7.8,2.7,14.2,7.5,20.5,13.1c15.6,14.2,31.5,28,48.3,40.7c9,6.8,17.2,14.7,25.7,22.2
		c17.2,15.1,34.3,30.3,51.5,45.5c4.3,3.8,8.8,7.3,13.1,11c5.3,4.6,5.7,11.1,0.9,16.4c-6,6.5-12,13-18.1,19.4
		c-9.5,10-19.2,19.9-28.8,29.8c-2.1,2.2-3.5,5.5-7.5,4.7c-0.5-0.1-1.3,0.4-1.6,0.9c-2,3.5-3.9,7-5.8,10.5c-1,1.9-2.2,1.5-3.2,0.2
		c-2-2.6-3.8-2-5.8-0.1c-1,0.9-2.2,1.6-3.2,2.5c-0.6,0.5-1.4,1.4-1.3,1.9c0.1,0.6,1.1,1.2,1.8,1.5c3.2,1.4,2.5,1.1,1.2,4.4
		c-1.8,5-5,4.9-9,4.8c-4.9-0.1-4.9,0.1-5.2,5.2c-0.1,1.1-0.3,2.2-0.2,3.2c0.1,2.7-1.2,4.3-3.8,4.7c-2.4,0.4-3.2,2-4,4.3
		c-0.8,2.4-2.2,4.5-3.7,6.5c-4.6,6.3-9,12.8-14,18.6c-11.4,13.1-23,26-34.9,38.6c-5.2,5.5-11.6,9.9-17.1,15.2
		c-10.9,10.7-21.5,21.8-32.2,32.7c-5,5.1-10,9.8-16,13.8c-5.3,3.5-9.5,8.8-14.1,13.2c-2.5,2.4-5,4.9-7.8,7.6
		c-1.2-3.3-0.4-5.7,1.3-7.9c3.2-3.9,6.6-7.6,9.6-11.6c2.1-2.8,4-6,5.7-9.2c0.4-0.8-0.1-2.1-0.2-3.2c-1,0.3-2.3,0.2-3.1,0.8
		c-8.5,6.4-16.2,13.9-23.3,22c-7.7,9-15.6,17.8-23.4,26.7c-2.1,2.3-4.3,4.4-6.5,6.5c-0.6,0.6-1.3,1.3-2,1.4c-1.3,0.2-2.7,0-4,0
		c0.5-1.5,0.7-3.2,1.5-4.5c1.6-2.5,3.6-4.8,5.8-7.6c-1.1-0.2-1.7-0.4-1.8-0.3c-1.9,3.5-5.8,3.9-8.7,5.7c-7.9,4.8-13.5,12.1-20,18.4
		c-2.6,2.5-5.9,4.2-9,6c-0.4,0.2-1.9-0.4-1.9-0.7c0-1.1,0-2.4,0.6-3.2c3-4.2,6.1-8.2,9.7-12.9c-2.9-0.3-4.9-1.4-5.9,1.6
		c0,0.1-0.1,0.2-0.1,0.3c-5.1,3.3-10.3,6.7-15.4,10c-0.2,0.1-0.6,0-1.1-0.1c0-0.5-0.2-1.2,0-1.5c3.3-3.9,6.6-7.8,9.9-11.8
		c0.7-0.9,1.1-2.1,1.6-3.2c-1.2-0.2-2.6-1-3.4-0.5c-2.8,1.6-5.8,3.2-8.1,5.4c-7.9,7.7-15.5,15.8-23.2,23.7c-2,2-4.1,4-6.2,5.9
		c-2.2-2.8-1.4-6.9,1.1-9.6c1.8-1.9,2.9-4.6,4.4-7.1c-1.9-1.8-2.9-3.6,0.4-5.2c0.5-0.2,0.6-1.1,1-1.6c0.9-1.3,1.7-2.7,2.8-3.8
		c1.5-1.5,2.1-2.6,0-4.1c-0.8-0.5-1.1-1.7-1.6-2.5c1,0.2,2.1,0.1,2.8,0.7c1.8,1.2,3.3,2.1,4.2-1.2c-1.5-0.4-2.9-0.8-5.1-1.4
		c2.1-2.4,3.8-4.5,5.7-6.5c17.1-19,34.1-38,51.4-56.9c12.2-13.4,24.8-26.3,37.1-39.6c5.2-5.7,10-11.9,14.9-17.9c0.6-0.8,1-1.8,1-3.2
		c-1,0.9-1.9,1.9-2.9,2.8c-0.2-0.1-0.5-0.2-0.7-0.3c0.2-0.7,0.3-1.5,0.7-2c5.3-6.8,10.8-13.4,16-20.2c0.8-1,0.7-2.8,1-4.3
		c-0.4-0.2-0.7-0.4-1.1-0.6c7.8-8.3,15.6-16.5,23.3-24.8c10-10.7,20-21.5,30.1-32.1c1.4-1.5,3.7-2.1,5.5-3.1c0,0-0.4-0.4-1.5-1.6
		c2.5-0.4,4.4-0.9,6.2-0.9c4.2,0,4.7-0.5,3.9-4.7c-0.7-3.9,2.4-8.3,6.1-9.1c1.1-0.3,2.8-1.4,3-2.4c0.9-4.1,3.6-6.5,6.3-9.2
		c2.9-2.8,5.4-5.9,7.9-9.1c4.4-5.7,8.7-11.6,13-17.4c0.1-0.1,0.1-0.2,0.2-0.2c1.1-1.1,3.2-2.4,3-3.3c-0.3-1.5-1.8-2.8-3-3.9
		C324.6,288.4,319.4,283.4,314.2,278.3C314.2,278.3,314.2,278.3,314.2,278.3z M329.4,280.3c-1.5-1-2.3-1.9-3.1-1.9
		c-0.7,0-1.5,1-2.2,1.6c0.7,0.6,1.3,1.6,2,1.7C327,281.8,327.9,281,329.4,280.3z M136.1,39.5c-0.5,0.1-1.1,0.3-1.6,0.4
		c0.2,1.2,0.5,2.4,0.7,3.6c0.6-0.2,1.8-0.5,1.7-0.5C136.7,41.9,136.4,40.7,136.1,39.5z"/>
	<path d="M127.4,297.8c-2.5-2.5-5.1-5-7.7-7.6c-0.1-0.1-0.4-0.2-0.5-0.4c-2.3-4.1-6.9-6.8-7-12.4c-1.1-0.1-2-0.1-3.1-0.2
		c-0.4-2.3,0.4-3.5,2.7-3.4c1,0,2.1-0.1,3.1-0.4c1.8-0.6,1.9-1.6,0.5-3c-3.9-3.9-7.7-7.9-11.6-11.7c-2.3-2.3-4.8-4.4-7.1-6.8
		c-2-2.1-3.9-4.4-5.5-6.9c-1.9-3-2.8-7.2-5.3-9.1c-3.8-2.9-4.3-7.8-7.6-10.8c-3.4-3-6.6-6.2-9.8-9.4c-7.5-7.5-15-15-22.6-22.5
		c-1.4-1.4-2.9-2.9-4.3-4.3c-0.2-0.2-0.5-0.5-0.5-0.8c-0.1-7.6-6.5-10.4-10.4-14.9c-3.2-3.7-6.8-7-10-10.6c-0.8-0.9-0.9-2.6-1.3-3.9
		c-0.6-1.9-1.2-3.9-2.1-6.6c3-3.5,1-7-1.9-10.6c-1.8-2.2-3-5-4.1-8.3c1.2,0.3,2.4,0.4,3.5,0.9c7,3.9,12.8,9.5,18.3,15.4
		c6.3,6.7,12.9,13.2,19.9,20.3c0.4-2.2,0.7-3.7,1.1-5.7c0.6,1.7,1.2,3.1,1.7,4.5c0.4-0.2,0.8-0.4,1.1-0.6
		c-0.3-6.9-6.8-10.6-8.6-17.5c1.8,0.4,3.8,0.5,5.2,1.4c3.5,2.3,6.8,4.9,10,7.7c7.3,6.3,14.5,12.6,21.6,19.2
		c5.3,4.9,10.2,10.2,15.4,15.2c0.9,0.8,2.3,1,3.8,1.6c0.4,0.9,1.2,2.5,2,4.1c0.4-0.2,0.8-0.3,1.2-0.5c0.2-2.8,0.8-5.5-1.6-8.2
		c-3.4-3.8-6.3-8-9.4-12c-0.2-0.3-0.2-0.8-0.6-2.1c1.4,0.4,2.7,0.4,3.2,1c3.7,5,8.7,4.1,14.5,3.4c-1.3-1.6-2.2-2.8-3.2-3.9
		c-8.4-8.8-16.9-17.6-25.4-26.5c-1.4-1.5-2.5-3.4-3.7-5.2c-2-3.1-4-6.2-5.8-9.4c-0.5-0.8-0.3-2-0.4-3c1,0.4,2,0.6,2.9,1.1
		c1,0.6,1.9,1.5,2.8,2.3c4.6,4,9.4,7.9,13.7,12.2c19.2,19,38.1,38.2,57.3,57.2c7.7,7.6,15.9,14.6,23.7,22.2c2.7,2.6,4.8,5.9,7,9
		c1.9,2.6,3.3,5.6,5.3,8.1c2.5,3.2,5.4,6.1,7.9,9.3c0.8,1,0.9,2.7,1.7,3.8c0.8,1,2.5,2.5,3.2,2.2c3.3-1.4,5.1,1.3,7.3,1.9
		c-0.7,1.7-2,3.3-1.7,4.3c0.4,1.1,2.2,1.7,3.5,2.5c3.7,2.1,7.8,3.6,11.1,6.3c7.8,6.3,15.2,13.1,22.8,19.8c0.2,0.1,0.3,0.4,0.5,0.4
		c4.7,0.9,3.4,4.3,2.9,7.5c-1.3,0.2-2.7,0.3-3.9,0.8c-1.1,0.5-2.6,1.3-2.8,2.2c-1.1,4.7-4.4,7.5-7.5,10.5
		c-16.1,15.5-32.4,31-48.4,46.6c-11,10.7-21.7,21.9-32.8,32.5c-3.3,3.2-7.7,5.1-11.4,7.8c-3.9,2.8-7.6,6-11.5,8.9
		c-1.7,1.2-3.6,2.2-5.6,3.4c0,0.1,0.3,0.8,0.7,1.8c-2.3,0.4-4.3,0.6-6.4,1c-2,0.4-3.8,1-4.6,3.3c-0.2,0.7-1.4,1.7-2,1.7
		c-2.5-0.3-4.9-0.7-5,3.4c0.5-6.5,3.9-11.4,7.3-16.3c-0.3-0.3-0.6-0.7-1-1c-1.7,0.8-3.6,1.3-5.1,2.5c-14.7,12.1-29.4,24.2-43.8,36.6
		c-4.1,3.5-8.3,5.9-13.5,7.3c-3.2,0.9-6.2,3.8-8.8,6.3c-4.4,4.3-8.8,8.2-15.1,9.1c-0.9,0.1-1.6,1.7-2.5,2.6
		c-0.7,0.7-1.3,1.5-2.1,1.8c-1.3,0.5-2.9,1.1-4.2,0.8c-1.5-0.4-2.7-1.8-4.3-3c-2.1,1.9-4.6,4.3-7.2,6.5c-0.5,0.4-1.7,0.1-2.5,0.1
		c0.1-1.1-0.2-2.4,0.2-3.3c0.4-0.7,1.6-1,2.8-1.7c-1.6-5.5,3.5-8,6.6-11.3c10.3-10.9,21.1-21.2,31.4-32.2c3.9-4.2,6.8-9.5,10.2-14.3
		c1.4-1.9,2.8-3.6,4.3-5.5c-3.5-2.5-7.1-2.2-10,0.5c-3.6,3.3-7.3,6.4-11.1,9.5c-0.7-1.5-1.6-2.9-2.1-4.5c-0.2-0.7-0.2-1.7,0.1-2.3
		c1-1.9,1.8-4.1-0.1-5.2c-1.9-1.1-4.4-2.6-6.9-0.4c-5.7,5-11.8,9.7-17.2,15c-3.4,3.3-7.2,3.4-11.3,3.2c2-5.8,7.2-8.6,11.1-12.6
		c9.1-9.5,18-19.3,27.1-28.8c2.5-2.6,5.3-4.8,8-7.2c0.4-0.4,1-0.6,1.2-1c2.5-5.8,8.7-7.4,12.3-12c4.6-5.8,10.3-9.9,17-12.7
		c0.8-0.3,1.5-1.8,1.5-2.8c0-3.2,0.9-5.3,3.7-7.2c2.5-1.6,4.3-4.4,6.4-6.6c8.7-9,17.4-18.1,26.2-27
		C118.6,305.7,123,301.9,127.4,297.8z M124.4,282.6c0.4-0.4,0.8-0.7,1.2-1.1c-1-1.1-1.9-2.3-2.9-3.4c-0.4,0.3-0.8,0.7-1.1,1
		C122.5,280.3,123.4,281.5,124.4,282.6z"/>
	<path d="M314.2,278.3c-1.1-1.4-2.1-2.8-3.6-4.6c3.1,0.7,5.5,1.3,8,1.9c0,0.4,0,0.8-0.1,1.2C316.6,276.1,314.8,275.6,314.2,278.3
		C314.2,278.3,314.2,278.3,314.2,278.3z"/>
	<path class="st0" d="M329.4,280.3c-1.6,0.8-2.4,1.5-3.2,1.5c-0.7-0.1-1.4-1.1-2-1.7c0.7-0.6,1.4-1.6,2.2-1.6
		C327.1,278.4,327.9,279.3,329.4,280.3z"/>
	<path class="st0" d="M136.1,39.5c0.3,1.2,0.6,2.3,0.8,3.5c0,0.1-1.1,0.3-1.7,0.5c-0.2-1.2-0.5-2.4-0.7-3.6
		C135,39.8,135.6,39.7,136.1,39.5z"/>
	<path class="st0" d="M124.4,282.6c-0.9-1.2-1.9-2.3-2.8-3.5c0.4-0.3,0.8-0.7,1.1-1c1,1.1,1.9,2.3,2.9,3.4
		C125.2,281.9,124.8,282.3,124.4,282.6z"/>
</g>
</svg>
