<?xml version="1.0" encoding="utf-8"?>
<!-- Generator: Adobe Illustrator 27.4.0, SVG Export Plug-In . SVG Version: 6.00 Build 0)  -->
<svg version="1.1" id="Layer_1" xmlns="http://www.w3.org/2000/svg" x="0px" y="0px"
	 viewBox="0 0 600 600" style="enable-background:new 0 0 600 600;" xml:space="preserve">
<style type="text/css">
	.st0{fill:#FFFFFF;}
</style>
<g>
	<path d="M388.13,278.33c2.37-0.06,4.76,0.07,7.08-0.27c1.13-0.17,2.15-1.24,3.21-1.9c-0.79-0.89-1.58-1.76-2.35-2.66
		c-0.71-0.83-1.4-1.68-2.11-2.52c-0.33-0.4-0.64-0.83-1.04-1.15c-6.12-4.97-12.3-9.86-18.34-14.92c-2.33-1.95-4.36-4.3-6.6-6.54
		c0.55-0.46,0.77-0.68,1.02-0.84c1.23-0.78,3.54-1.62,3.5-2.3c-0.11-1.89-0.72-4.3-2-5.47c-7.73-7.05-15.72-13.8-23.6-20.67
		c-10.67-9.32-21.37-18.61-31.97-28.01c-9.09-8.07-18.01-16.35-27.1-24.44c-6.6-5.88-13.41-11.5-19.98-17.42
		c-1.74-1.56-2.95-3.76-4.61-5.95c0.48-0.25,1.12-0.69,1.82-0.94c2.26-0.8,3.06-3.57,1.06-4.48c-3.28-1.49-4.04-5.01-6.45-7.2
		c-7.84-7.13-15.14-14.89-22.92-22.1c-4.24-3.93-9.2-7.01-13.52-10.85c-3.86-3.43-7.29-7.4-10.91-11.12
		c-1.47-1.51-2.98-2.97-4.41-4.52c-0.3-0.33-0.32-0.94-0.82-2.52c1.87,0.76,3.01,1.13,4.06,1.67c1.72,0.88,3.34,2.02,5.12,2.75
		c0.69,0.28,2.22-0.02,2.43-0.51c0.35-0.8,0.26-2.16-0.19-2.94c-4.32-7.55-10.46-13.37-16.78-19.04c-3.5-3.13-6.71-6.62-10.03-9.97
		c-0.36-0.36-0.8-0.89-0.79-1.33c0.05-1.49,0.3-2.97,0.51-4.77c-0.36,0.15-0.06-0.05,0,0.01c2.14,2.25,5.29,3.09,7.38,4.96
		c1.71,1.53,3.34,2.69,5.35,3.34c0.8,0.26,1.8-0.16,2.72-0.27c-0.13-1.11,0.13-2.55-0.44-3.29c-3.1-3.98-6.58-7.64-9.54-11.72
		c-1.01-1.39-0.89-3.66-1.29-5.52c0.29-0.15,0.58-0.3,0.87-0.45c0.49,0.38,0.99,0.75,1.48,1.14c0.95,0.74,1.88,1.5,2.85,2.22
		c0.84,0.62,1.68,1.26,2.57,1.79c1.03,0.61,2.11,1.11,3.17,1.66c0.17-1.08,0.63-2.21,0.45-3.22c-1.08-5.96-6.19-8.73-9.77-12.58
		c-3.95-4.24-8.85-7.5-13.02-11.53c-3.25-3.14-6.01-6.83-8.97-10.26c0.44-0.2,2.35,1.65,2.25-1c-0.01-0.2,1.49-0.83,2.09-0.63
		c1.66,0.55,3.32,1.26,4.78,2.23c2.69,1.8,5.17,3.95,7.88,5.7c0.5,0.32,1.76-0.41,2.55-0.88c0.71-0.43,1.26-1.17,1.88-1.77
		c0.62,0.73,1.2,1.49,1.85,2.18c0.61,0.65,1.2,1.56,1.96,1.77c1.65,0.47,3.2,0.69,3.53,2.96c0.07,0.47,1.37,1.09,2.03,1.01
		c0.57-0.07,1.07-1.01,1.56-1.6c0.53-0.63,1.16-1.93,1.48-1.85c0.81,0.21,1.51,1,2.19,1.63c2.27,2.06,4.49,4.2,6.78,6.23
		c8.08,7.17,16.17,14.32,24.28,21.45c6.21,5.45,12.52,10.78,18.68,16.29c18.95,16.96,37.89,33.95,56.75,51.03
		c2.48,2.24,4.23,5.17,4.42,8.84c0.14,2.66,1.49,3.67,4.13,3.59c2.24-0.07,4.54,0.46,6.75,1.01c0.63,0.16,1.55,1.43,1.45,2.02
		c-0.73,4.11,1.06,6.39,4.5,7.96c2.27,1.03,4.36,2.52,7.24,4.22c1.17,5.21,5.59,7.54,11.19,8.53c0.77,0.14,1.89,1.74,1.85,2.62
		c-0.11,2.76,0.95,4.12,3.42,4.98c7.79,2.73,14.23,7.46,20.49,13.15c15.59,14.19,31.47,28.03,48.31,40.68
		c9.01,6.77,17.21,14.73,25.71,22.22c17.17,15.13,34.28,30.34,51.45,45.46c4.29,3.78,8.79,7.31,13.13,11.04
		c5.34,4.59,5.71,11.14,0.88,16.4c-5.98,6.51-11.98,13-18.09,19.38c-9.55,9.98-19.21,19.86-28.81,29.8
		c-2.13,2.2-3.54,5.54-7.47,4.74c-0.46-0.09-1.29,0.44-1.57,0.92c-1.99,3.48-3.9,7.01-5.78,10.55c-1,1.87-2.2,1.51-3.18,0.2
		c-1.96-2.63-3.78-1.99-5.8-0.13c-1.01,0.93-2.23,1.61-3.25,2.53c-0.58,0.52-1.4,1.38-1.29,1.91c0.12,0.61,1.09,1.17,1.79,1.48
		c3.23,1.42,2.46,1.07,1.23,4.35c-1.85,4.95-5.02,4.87-9.02,4.76c-4.88-0.13-4.88,0.14-5.21,5.19c-0.07,1.08-0.26,2.17-0.24,3.25
		c0.06,2.74-1.21,4.3-3.75,4.73c-2.42,0.41-3.23,2.03-3.96,4.34c-0.75,2.35-2.25,4.5-3.71,6.51c-4.58,6.29-8.96,12.8-14.04,18.64
		c-11.41,13.1-23,26.03-34.9,38.64c-5.23,5.54-11.62,9.87-17.06,15.21c-10.9,10.72-21.51,21.75-32.23,32.67
		c-4.97,5.07-10.05,9.85-16.02,13.82c-5.26,3.5-9.46,8.75-14.12,13.23c-2.52,2.43-5.03,4.87-7.84,7.58
		c-1.22-3.33-0.44-5.74,1.31-7.88c3.17-3.88,6.56-7.57,9.58-11.56c2.15-2.85,3.96-6.01,5.68-9.18c0.43-0.79-0.11-2.14-0.2-3.23
		c-1.05,0.26-2.31,0.23-3.13,0.84c-8.55,6.42-16.23,13.86-23.28,22.04c-7.72,8.97-15.56,17.82-23.41,26.66
		c-2.05,2.3-4.3,4.4-6.51,6.55c-0.6,0.58-1.31,1.29-2.04,1.42c-1.31,0.22-2.67,0.02-4.02,0c0.48-1.51,0.69-3.22,1.51-4.48
		c1.64-2.53,3.62-4.81,5.78-7.61c-1.11-0.17-1.74-0.38-1.81-0.26c-1.92,3.53-5.76,3.89-8.7,5.66c-7.89,4.76-13.52,12.08-20.04,18.41
		c-2.57,2.49-5.89,4.16-8.96,6.04c-0.41,0.25-1.92-0.41-1.93-0.69c-0.03-1.06,0.03-2.37,0.6-3.17c2.99-4.16,6.15-8.19,9.74-12.9
		c-2.9-0.27-4.94-1.39-5.94,1.59c-0.03,0.1-0.05,0.25-0.12,0.29c-5.13,3.33-10.26,6.66-15.42,9.96c-0.21,0.13-0.59-0.04-1.11-0.08
		c0-0.51-0.2-1.18,0.03-1.46c3.26-3.94,6.61-7.79,9.85-11.75c0.72-0.88,1.06-2.1,1.58-3.17c-1.16-0.21-2.61-0.99-3.43-0.54
		c-2.83,1.56-5.78,3.18-8.08,5.44c-7.86,7.74-15.46,15.78-23.18,23.67c-2,2.05-4.12,3.97-6.19,5.94c-2.18-2.85-1.43-6.93,1.12-9.58
		c1.83-1.9,2.89-4.61,4.38-7.1c-1.95-1.78-2.86-3.62,0.39-5.21c0.46-0.22,0.61-1.08,0.97-1.59c0.91-1.29,1.73-2.7,2.83-3.79
		c1.5-1.49,2.05-2.63-0.01-4.12c-0.75-0.54-1.11-1.66-1.65-2.51c0.96,0.2,2.08,0.14,2.84,0.66c1.8,1.23,3.28,2.07,4.21-1.23
		c-1.52-0.43-2.89-0.81-5.12-1.44c2.09-2.42,3.83-4.53,5.66-6.55c17.11-18.98,34.15-38.05,51.4-56.9
		c12.22-13.35,24.82-26.31,37.07-39.63c5.23-5.7,10-11.86,14.93-17.86c0.64-0.78,1.02-1.81,1.04-3.2c-0.97,0.93-1.94,1.85-2.91,2.78
		c-0.23-0.11-0.45-0.22-0.68-0.32c0.22-0.68,0.27-1.5,0.68-2.01c5.33-6.75,10.78-13.4,16.01-20.22c0.8-1.04,0.68-2.84,0.98-4.29
		c-0.35-0.19-0.71-0.37-1.06-0.56c7.77-8.27,15.56-16.52,23.31-24.8c10.03-10.72,19.98-21.52,30.11-32.14
		c1.42-1.48,3.69-2.08,5.55-3.08c-0.03-0.03-0.38-0.42-1.46-1.61c2.54-0.38,4.37-0.87,6.2-0.87c4.19,0,4.69-0.49,3.91-4.66
		c-0.73-3.91,2.35-8.27,6.08-9.1c1.15-0.26,2.79-1.41,3-2.43c0.87-4.12,3.6-6.54,6.34-9.2c2.85-2.77,5.41-5.92,7.86-9.1
		c4.42-5.72,8.66-11.59,12.97-17.4c0.06-0.09,0.14-0.16,0.21-0.24c1.07-1.11,3.15-2.41,3-3.27c-0.26-1.46-1.85-2.75-3.04-3.93
		c-5.13-5.09-10.33-10.12-15.5-15.17C388.18,278.3,388.13,278.33,388.13,278.33z M403.36,280.29c-1.49-0.97-2.31-1.9-3.09-1.88
		c-0.74,0.02-1.45,1.05-2.17,1.64c0.68,0.6,1.31,1.61,2.04,1.69C400.93,281.83,401.8,281.05,403.36,280.29z M210.04,39.54
		c-0.54,0.14-1.08,0.29-1.62,0.43c0.23,1.21,0.46,2.42,0.69,3.64c0.61-0.18,1.75-0.45,1.74-0.53
		C210.67,41.89,210.34,40.72,210.04,39.54z"/>
	<path d="M201.34,297.76c-2.47-2.45-5.09-5.04-7.71-7.63c-0.15-0.15-0.38-0.24-0.48-0.42c-2.34-4.12-6.93-6.8-7.02-12.39
		c-1.09-0.06-1.98-0.11-3.08-0.17c-0.35-2.27,0.35-3.47,2.73-3.44c1.02,0.01,2.09-0.07,3.06-0.39c1.84-0.62,1.93-1.62,0.51-3.03
		c-3.9-3.87-7.7-7.86-11.59-11.74c-2.31-2.31-4.84-4.41-7.06-6.81c-1.99-2.15-3.89-4.45-5.49-6.93c-1.92-2.98-2.78-7.21-5.33-9.13
		c-3.84-2.9-4.32-7.81-7.65-10.79c-3.38-3.01-6.6-6.21-9.82-9.41c-7.54-7.48-15.04-15.01-22.56-22.52
		c-1.45-1.45-2.91-2.88-4.35-4.34c-0.22-0.22-0.51-0.52-0.52-0.78c-0.08-7.57-6.48-10.37-10.45-14.95c-3.18-3.67-6.78-6.96-10-10.6
		c-0.82-0.93-0.93-2.55-1.35-3.87c-0.62-1.95-1.22-3.91-2.07-6.65c2.96-3.47,1.02-6.99-1.87-10.65c-1.77-2.24-2.96-4.96-4.11-8.26
		c1.16,0.3,2.45,0.36,3.47,0.93c7.03,3.93,12.76,9.53,18.32,15.41c6.34,6.71,12.89,13.18,19.86,20.28c0.42-2.16,0.73-3.74,1.11-5.7
		c0.64,1.67,1.19,3.08,1.73,4.5c0.38-0.18,0.77-0.37,1.15-0.55c-0.3-6.89-6.78-10.6-8.58-17.54c1.75,0.45,3.75,0.47,5.19,1.42
		c3.49,2.32,6.84,4.92,10.02,7.67c7.28,6.3,14.54,12.65,21.61,19.22c5.28,4.9,10.21,10.21,15.41,15.21c0.86,0.82,2.29,1,3.75,1.59
		c0.45,0.91,1.23,2.5,2.02,4.08c0.39-0.16,0.79-0.31,1.18-0.47c0.19-2.81,0.82-5.48-1.57-8.16c-3.37-3.77-6.29-7.98-9.37-12.02
		c-0.23-0.3-0.25-0.79-0.62-2.05c1.45,0.44,2.73,0.4,3.2,1.03c3.71,5.04,8.67,4.14,14.5,3.43c-1.32-1.6-2.19-2.82-3.22-3.89
		c-8.44-8.84-16.95-17.62-25.35-26.51c-1.44-1.52-2.52-3.42-3.67-5.21c-1.98-3.09-3.96-6.2-5.78-9.4c-0.46-0.81-0.3-2-0.43-3.02
		c0.98,0.35,2.03,0.56,2.91,1.1c1.01,0.62,1.88,1.51,2.79,2.31c4.58,4.04,9.35,7.87,13.69,12.17c19.16,19.01,38.12,38.24,57.32,57.2
		c7.7,7.61,15.93,14.63,23.71,22.16c2.69,2.61,4.83,5.88,7.05,8.98c1.87,2.62,3.32,5.59,5.27,8.14c2.48,3.24,5.36,6.15,7.9,9.34
		c0.83,1.04,0.92,2.71,1.74,3.75c0.81,1.01,2.48,2.48,3.16,2.19c3.31-1.43,5.13,1.26,7.31,1.92c-0.71,1.69-2.01,3.31-1.66,4.34
		c0.37,1.11,2.23,1.73,3.51,2.45c3.71,2.1,7.83,3.63,11.12,6.3c7.79,6.31,15.19,13.14,22.75,19.77c0.16,0.14,0.28,0.4,0.45,0.44
		c4.68,0.87,3.4,4.26,2.87,7.51c-1.27,0.25-2.66,0.31-3.88,0.82c-1.07,0.45-2.57,1.26-2.79,2.19c-1.1,4.69-4.44,7.5-7.55,10.51
		c-16.13,15.55-32.36,30.99-48.41,46.62c-11.03,10.74-21.68,21.91-32.79,32.55c-3.31,3.18-7.69,5.12-11.44,7.84
		c-3.92,2.84-7.64,5.98-11.54,8.86c-1.69,1.25-3.59,2.18-5.63,3.4c0.04,0.09,0.33,0.8,0.72,1.77c-2.29,0.35-4.33,0.61-6.35,0.98
		c-1.99,0.36-3.79,0.95-4.56,3.34c-0.23,0.74-1.36,1.74-1.97,1.67c-2.54-0.32-4.89-0.72-4.98,3.42c0.47-6.52,3.94-11.38,7.26-16.32
		c-0.32-0.33-0.65-0.67-0.97-1c-1.7,0.82-3.63,1.32-5.06,2.49c-14.69,12.11-29.39,24.21-43.85,36.61
		c-4.11,3.52-8.34,5.88-13.51,7.32c-3.24,0.9-6.17,3.78-8.75,6.32c-4.38,4.33-8.84,8.16-15.11,9.07c-0.92,0.13-1.63,1.71-2.47,2.58
		c-0.65,0.66-1.26,1.53-2.05,1.82c-1.33,0.5-2.92,1.1-4.17,0.76c-1.46-0.4-2.68-1.76-4.34-2.95c-2.13,1.94-4.58,4.3-7.2,6.45
		c-0.53,0.44-1.68,0.07-2.54,0.08c0.05-1.12-0.22-2.41,0.23-3.3c0.37-0.74,1.59-1,2.81-1.69c-1.63-5.52,3.53-8.04,6.63-11.32
		c10.28-10.91,21.12-21.24,31.36-32.19c3.95-4.23,6.83-9.53,10.25-14.3c1.35-1.88,2.84-3.64,4.27-5.46
		c-3.48-2.55-7.07-2.23-10.03,0.48c-3.58,3.29-7.34,6.35-11.05,9.54c-0.73-1.48-1.56-2.91-2.13-4.45c-0.25-0.67-0.22-1.7,0.11-2.31
		c1-1.85,1.79-4.13-0.1-5.23c-1.95-1.14-4.42-2.62-6.91-0.44c-5.74,5.01-11.76,9.69-17.24,14.97c-3.43,3.31-7.2,3.38-11.27,3.2
		c2.03-5.79,7.21-8.56,11.08-12.62c9.09-9.54,17.99-19.26,27.07-28.81c2.47-2.6,5.3-4.84,7.97-7.24c0.39-0.35,1-0.59,1.19-1.03
		c2.51-5.79,8.72-7.42,12.3-11.96c4.61-5.84,10.32-9.93,17.03-12.68c0.75-0.31,1.47-1.82,1.48-2.77c0.01-3.17,0.92-5.33,3.72-7.16
		c2.48-1.61,4.26-4.4,6.39-6.62c8.7-9.04,17.36-18.13,26.17-27.05C192.5,305.72,196.95,301.85,201.34,297.76z M198.3,282.62
		c0.4-0.36,0.81-0.72,1.21-1.08c-0.98-1.13-1.95-2.27-2.93-3.4c-0.38,0.33-0.75,0.67-1.13,1C196.4,280.3,197.35,281.46,198.3,282.62
		z"/>
	<path d="M388.18,278.3c-1.07-1.37-2.14-2.75-3.58-4.6c3.09,0.73,5.54,1.3,7.99,1.88c-0.02,0.4-0.05,0.8-0.07,1.2
		c-1.94-0.7-3.81-1.21-4.38,1.55C388.13,278.33,388.18,278.3,388.18,278.3z"/>
	<path class="st0" d="M403.36,280.29c-1.56,0.75-2.43,1.54-3.22,1.45c-0.73-0.08-1.37-1.09-2.04-1.69c0.72-0.59,1.44-1.62,2.17-1.64
		C401.05,278.39,401.87,279.32,403.36,280.29z"/>
	<path class="st0" d="M210.04,39.54c0.3,1.18,0.63,2.35,0.81,3.54c0.01,0.08-1.13,0.35-1.74,0.53c-0.23-1.21-0.46-2.42-0.69-3.64
		C208.96,39.83,209.5,39.69,210.04,39.54z"/>
	<path class="st0" d="M198.3,282.62c-0.95-1.16-1.89-2.32-2.84-3.48c0.38-0.33,0.75-0.67,1.13-1c0.98,1.13,1.95,2.27,2.93,3.4
		C199.11,281.9,198.7,282.26,198.3,282.62z"/>
</g>
</svg>
