<?xml version="1.0" encoding="utf-8"?>
<!-- Generator: Adobe Illustrator 27.4.0, SVG Export Plug-In . SVG Version: 6.00 Build 0)  -->
<svg version="1.1" id="Layer_1" xmlns="http://www.w3.org/2000/svg" x="0px" y="0px"
	 viewBox="0 0 600 600" style="enable-background:new 0 0 600 600;" xml:space="preserve">
<path d="M277.81,0c7.24,0,14.49,0,21.73,0c-0.27,0.16-0.54,0.32-1.1,0.65c14.26,1.75,26.05,7.63,36.16,16.8
	c9.07,8.23,15.87,17.99,20.89,28.89c2.52,5.46,4.64,11.08,7.22,17.29c0.36-0.61,0.62-1.31,1.1-1.8c3.35-3.46,6.55-7.07,10.16-10.26
	c12.48-11.07,26.67-19.17,43.51-22.64c18.01-3.71,35.44-2.38,51.98,5.64c12.85,6.22,22.85,15.33,28.74,28.13
	c7.98,17.35,8.72,35.16,3.08,53.24c-5.34,17.13-15.24,31.86-27.06,45.4c-10.38,11.9-22.12,22.54-34.78,32.23
	c-3.75,2.86-7.58,5.62-11.46,8.49c0.32,0.1,0.52,0.22,0.71,0.22c10.14-0.04,20.28-0.07,30.42-0.18c0.79-0.01,1.69-0.37,2.36-0.82
	c9.18-6.18,18.32-12.42,27.49-18.6c17.76-11.97,35.55-23.91,53.31-35.89c11.43-7.7,22.82-15.44,34.24-23.15
	c2.97-2,6.18-3.38,9.91-3.02c6.08,0.6,11.58,4.66,12.89,9.4c1.83,6.67-0.13,12.17-5.87,16.14c-5.63,3.9-11.31,7.74-16.99,11.58
	c-26.91,18.2-53.83,36.38-80.74,54.58c-1.94,1.31-3.86,2.64-5.76,3.94c2.62,1.79,5.06,3.48,7.53,5.15
	c24.12,16.33,48.24,32.67,72.38,48.98c7.93,5.36,15.92,10.63,23.8,16.04c1.55,1.07,3.03,2.44,4.05,3.97
	c3.71,5.54,2.67,13.21-2.17,17.59c-5.02,4.55-12.89,5.14-18.61,1.29c-23.85-16.1-47.69-32.21-71.5-48.35
	c-14.42-9.77-28.78-19.64-43.24-29.35c-1.37-0.92-3.29-1.43-4.98-1.5c-4.7-0.2-9.41-0.08-14.12-0.07c-0.58,0-1.17,0.09-1.16,0.09
	c9.56,6.46,19.58,12.81,29.12,19.77c20.68,15.07,39.04,32.43,54.69,52.38c17.88,22.79,31.22,47.75,39.59,75.14
	c5.74,18.79,9.73,37.92,10.03,57.49c0.46,31.17,0.19,62.35,0.2,93.53c0,7.51-1.73,14.76-4.33,21.77
	c-4.76,12.83-12.69,23.62-23.7,32.28c-10.62,8.35-22.52,14.01-36.2,15.96c-2.39,0.34-4.8,0.58-7.43,0.9
	c1.13,0.27,2.02,0.48,2.92,0.69c-146.9,0-293.79,0-440.69,0c2.02-0.23,4.03-0.47,6.05-0.7c-0.72-0.3-1.47-0.4-2.23-0.49
	c-3.3-0.39-6.66-0.52-9.89-1.21c-16.43-3.52-30.16-11.58-41.15-23.7c-12.37-13.65-18.77-29.65-18.82-47.8
	c-0.08-27.92-0.27-55.84,0.1-83.75c0.15-11.07,1.1-22.2,2.72-33.16c2.47-16.7,7.02-32.97,13.25-48.79
	c8.35-21.19,19.85-40.71,34.05-58.71c12.34-15.64,26.29-29.9,42.09-42.49c21.03-16.75,43.45-31.36,68.15-42.67
	c0.74-0.34,1.43-0.79,2.36-1.3c-1.72-0.82-3.2-1.39-4.54-2.17c-14.93-8.66-29.66-17.59-42.95-28.54
	c-12.02-9.91-23.08-20.58-31.97-33.28c-9.79-13.99-16.58-29.08-17.06-46.03c-0.62-21.72,5.72-41.41,22.39-56.86
	c20.95-19.42,45.74-24.85,73.49-16.33c19.05,5.84,33.25,18.13,45.25,33.02c0.87,1.08,1.71,2.19,2.71,3.49
	c0.77-1.8,1.41-3.32,2.07-4.82c6.89-15.7,15.29-30.49,27.78-42.87c9.08-9,19.49-15.87,32.31-18.97c2.04-0.49,4.14-0.8,6.36-1.23
	C278.27,0.32,278.04,0.16,277.81,0z M287.37,571.67c70.55,0,141.1,0.01,211.65-0.01c5.54,0,10.92-0.96,16.11-2.9
	c18.9-7.04,31.51-24.46,31.42-42.96c-0.13-25.76,0.01-51.53-0.05-77.29c-0.04-17.53-1.48-34.9-5.74-52.03
	c-5.94-23.92-15.71-46.24-29.92-66.7c-17.25-24.84-39.1-45.42-64.29-62.85c-21.05-14.57-43.58-26.51-67.81-35.45
	c-2.5-0.92-5.34-1.38-8.03-1.39c-35.13-0.07-70.26-0.01-105.38-0.01c-20.21,0-40.42-0.08-60.62,0.03c-2.68,0.01-5.42,0.7-8,1.49
	c-3.3,1-6.51,2.29-9.67,3.67c-20.38,8.91-40,19.07-58.14,31.79c-22.85,16.02-43.09,34.52-59.66,56.59
	c-17.36,23.11-29.07,48.67-35.08,76.54c-2.02,9.35-3.52,18.86-4.38,28.37c-0.82,9.04-0.61,18.17-0.64,27.27
	c-0.06,23.75-0.19,47.5,0.08,71.25c0.22,18.82,13.52,35.91,32.05,42.02c6.51,2.15,13.19,2.66,20.08,2.65
	C150.04,571.62,218.71,571.67,287.37,571.67z M287.14,202.16c0,0.01,0,0.03,0,0.04c28.82,0,57.65,0.01,86.47-0.04
	c1.02,0,2.16-0.37,3.03-0.89c8.21-4.94,16.49-9.79,24.53-14.97c11.67-7.53,22.43-16.18,32.92-25.15
	c11.41-9.76,21.45-20.68,29.71-32.99c8.23-12.27,13.33-25.55,11.73-40.5c-0.91-8.49-3.69-16.3-10.32-22.34
	c-9.73-8.88-21.72-11.25-34.58-10.18c-14.06,1.17-26.08,6.85-36.22,16.26c-10.71,9.93-18.19,21.8-23.48,35.09
	c-1.1,2.77-2.64,5.79-4.91,7.66c-8.37,6.92-20.77,3.01-23.46-7.28c-1.21-4.62-1.66-9.42-2.63-14.11
	c-2.42-11.7-5.1-23.34-10.46-34.22c-4.2-8.54-9.2-16.46-16.9-22.66c-10.59-8.53-27.56-10.99-40.48-4.1
	c-8.48,4.52-14.71,11.19-19.95,18.77c-10.36,15.01-17.18,31.51-21.79,48.91c-0.87,3.29-1.72,6.6-2.93,9.77
	c-3.15,8.22-16.33,11.82-23.36,4.11c-1.64-1.79-3.02-3.91-4.06-6.08c-4.56-9.57-10.11-18.54-16.9-26.82
	c-7.45-9.09-16.01-16.84-27.45-21.06c-17.22-6.35-33.19-3.99-46.35,8.45C96.55,79.89,93.3,95.34,96.48,111.87
	c2.35,12.21,9.06,22.62,17.28,32c8.93,10.18,19.21,19.04,30.33,27.01c15.24,10.92,31.64,19.98,48.56,28.23
	c2.98,1.45,5.87,3.12,9.53,3.1C230.5,202.12,258.82,202.16,287.14,202.16z M431.5,509.08c-3.42,0-6.97,0.56-10.24-0.11
	c-7.26-1.5-14.64-3.01-21.5-5.63c-15.83-6.05-31.67-12.13-46.53-20.29c-11.29-6.19-23.16-11.42-33.53-19.09
	c-3.49-2.59-7.02-5.14-10.54-7.69c-2.72-1.97-2.77-2.36-0.07-4.38c4.85-3.63,9.73-7.22,14.63-10.78
	c17.54-12.78,35.74-24.63,55.1-34.71c16.83-8.76,33.86-17.21,50.97-25.46c16.47-7.94,33.11-15.54,49.77-23.12
	c8.29-3.77,16.78-7.13,25.15-10.71c0.9-0.38,1.68-1.03,2.51-1.55c-0.09-0.18-0.19-0.37-0.28-0.55c-3.08,0.28-6.17,0.54-9.25,0.85
	c-10.58,1.05-21.16,2.08-31.74,3.17c-14.95,1.55-29.87,3.55-44.86,4.6c-14.07,0.98-28.21,0.96-42.32,1.38c-0.83,0.02-1.65,0-2.81,0
	c1.14,2.9,2.32,5.4,5.2,6.16c2.83,0.75,5.83,1.05,8.77,1.3c11.09,0.96,22.19,1.81,33.28,2.71c0.94,0.08,1.9,0.09,2.8,0.31
	c1.06,0.26,2.06,0.71,3.08,1.08c0.01,0.21,0.02,0.42,0.03,0.62c-1.7,1.01-3.4,2.02-5.11,3.01c-15.63,9.13-31.19,18.38-46.91,27.35
	c-26.64,15.2-52.91,30.9-76.55,50.29c-1.32,1.08-2.46,1.15-3.89,0.28c-4.94-3.03-10.01-5.86-14.85-9.01
	c-15.85-10.3-30.46-22.11-44.96-34.05c-1.12-0.92-2.32-1.74-3.53-2.64c-2.16,3.88-1.94,7.22,0.49,9.91
	c8.3,9.2,17.16,17.88,26.82,25.78c13.12,10.72,26.81,20.71,40.99,30.13c23.77,15.79,48.13,30.49,74.96,41.18
	c22.76,9.07,45.98,16.57,70.36,20.45c2.88,0.46,5.77,0.79,9.02,1.23c-0.36-1.3-0.53-2.18-0.84-3c-2.57-6.92-5.08-13.85-7.76-20.73
	c-6.65-17.06-13.07-34.21-20.16-51.1c-6.56-15.61-13.88-30.92-20.85-46.37c-0.81-1.79-1.98-2.37-3.96-1.6
	c-2.81,1.09-5.71,1.98-8.53,3.04c-3.6,1.36-3.59,1.4-1.96,4.65c0.56,1.12,1.17,2.23,1.73,3.36c10.03,20.36,20.86,40.37,28.61,61.7
	c3.3,9.07,6.54,18.16,9.8,27.24C431.88,508.52,431.69,508.8,431.5,509.08z M131.37,278.28c0.76,1.79,1.48,3.62,2.38,5.35
	c19.4,37.44,43.22,72.13,70.81,104.47c0.36,0.42,0.99,0.62,1.5,0.92c0.32-0.5,0.8-0.97,0.94-1.51c0.62-2.35,1.29-4.71,1.63-7.1
	c0.15-1.04-0.11-2.43-0.76-3.24c-10.66-13.41-19.3-27.99-27.27-42.95c-1.9-3.58-3.57-7.27-5.24-10.95c-0.3-0.67-0.05-1.57-0.06-2.36
	c0.73,0.16,1.51,0.22,2.17,0.51c1.97,0.86,3.86,1.92,5.85,2.73c18.51,7.58,37.62,13.49,57.02,18.55c9.41,2.45,18.89,4.68,28.41,6.68
	c7.68,1.61,15.46,2.8,23.22,4.06c7.76,1.27,15.52,2.67,23.33,3.52c11.78,1.27,23.61,2.14,35.43,3.1c4,0.33,7.48,1.35,9.74,4.86
	c3.83,5.95,7.84,11.81,11.58,17.82c3.07,4.95,2.53,6.11,8.05,0.89c1.04-0.98,1.2-1.89,0.27-3.07c-1.96-2.49-3.83-5.05-5.69-7.61
	c-18.04-24.84-37.54-48.51-60.99-68.91c-9.05-7.87-18.67-15.14-28.05-22.66c-1.04-0.83-2.02-1.65-3.43-0.09
	c-13.33,14.79-25.66,30.25-35.72,47.29c-0.23,0.39-0.34,0.86-0.56,1.44c0.76,0.34,1.38,0.75,2.05,0.88
	c3.89,0.75,7.79,1.43,11.68,2.12c1.84,0.33,2.9-0.51,3.83-2c3.01-4.81,6.15-9.55,9.27-14.29c1.26-1.92,2.33-4.08,4.01-5.59
	c1.49-1.34,2.49-2.65,3.05-4.52c0.73-2.43,2.4-2.98,4.68-1.75c3.28,1.77,6.54,3.56,9.77,5.41c19.63,11.22,37.14,25.06,53.76,40
	c0.6,0.54,1.04,1.24,1.56,1.86c-0.08,0.24-0.16,0.48-0.23,0.72c-13.11,0.61-26.16-1.11-39.08-2.68c-13-1.58-25.81-4.68-38.67-7.28
	c-12.9-2.61-25.41-6.55-37.66-11.12c-12.24-4.57-24.45-9.34-36.23-14.89c-11.79-5.56-23.33-11.73-34.42-18.48
	c-11.02-6.7-21.34-14.46-32.35-22.01C131.15,277.35,131.19,277.85,131.37,278.28z M212.07,527.61c-0.14-0.56-0.39-1.13-0.39-1.69
	c-0.03-5.35-0.23-10.7,0.04-16.03c0.62-12.18,3.91-24.12,3.76-36.39c-0.01-0.76,0.19-1.52,0.26-2.28c0.38-4.34,0.87-8.68,1.1-13.03
	c0.41-7.83,0.59-15.67,1.01-23.5c0.32-6.02,0.86-12.02,1.31-18.03c0.04-0.48,0.19-0.95,0.27-1.42c0.77-4.7,1.53-9.4,2.29-14.1
	c0.27-1.64,0.39-3.31,0.81-4.9c3.82-14.47,10.69-27.79,17.06-41.3c1.36-2.89,1.43-2.86-1.07-4.88c-2.51-2.03-3.37-1.85-4.78,1.04
	c-1.99,4.08-4.14,8.1-5.87,12.28c-4.33,10.42-8.71,20.83-12.59,31.41c-3.49,9.52-6.8,19.15-9.36,28.93
	c-2.47,9.46-4.23,19.13-5.66,28.79c-1.85,12.56-3.88,25.18-4.37,37.82c-0.86,21.9-1.22,43.87,1.56,65.72
	c0.17,1.35,1.18,2.73,2.12,3.84c0.74,0.88,1.95,1.41,3,2.03c5.76,3.41,5.68,3.35,9.66-1.87c10.9-14.28,21.66-28.67,32.9-42.7
	c11.69-14.6,24.22-28.54,38.24-41.19c1.99-1.8,1.94-2.03-0.04-3.74c-1.88-1.63-3.85-3.17-5.65-4.88c-1.56-1.48-2.86-1.43-4.43-0.03
	c-5.4,4.83-10.96,9.49-16.29,14.39c-15.22,13.99-30.04,28.34-43,44.35c-0.44,0.54-0.77,1.17-1.15,1.75
	C212.57,527.88,212.32,527.74,212.07,527.61z M290.63,358.75c0.44,1.04,0.83,2.11,1.33,3.13c4.31,8.8,5.6,17.69,1.12,26.83
	c-0.67,1.36-1.26,2.88-1.33,4.35c-0.06,1.32,0.66,2.66,1.03,4c1.11-0.65,2.34-1.17,3.29-1.99c1.28-1.1,2.34-2.42,3.49-3.65
	c0.36,0.91,0.34,1.53,0.21,2.13c-0.55,2.58-1.03,5.17-1.73,7.71c-0.61,2.23-0.08,3.91,1.91,5.24c2.02,1.34,3.93,2.83,5.98,4.12
	c1.1,0.69,2.39,1.1,4.05,1.84c-0.13-1.34-0.13-2.15-0.29-2.93c-1.1-5.35-0.17-9.92,5.18-12.89c0.68-0.38,1.26-0.93,1.82-1.47
	c3.09-2.99,3.16-5.14,0.22-8.23c-0.87-0.92-1.97-1.66-2.78-2.62c-1.99-2.35-4.03-4.68-5.75-7.21c-1.29-1.9-2.11-4.09-3.17-6.14
	c-2.22-4.3-5.22-7.99-9.41-10.68c-1.39-0.89-2.97-1.49-4.46-2.22C291.11,358.28,290.87,358.52,290.63,358.75z M317.07,369.14
	c-3.42,0.13-4.14,1.72-2.34,4.58c0.9,1.42,2.31,1.45,3.78,1.53c5.63,0.31,11.31,0.33,16.87,1.1c4.01,0.56,7.96,1.91,11.76,3.34
	c2.41,0.9,2.79,2.7,1.29,4.76c-1.22,1.68-2.68,3.33-4.39,4.54c-7.95,5.65-16.69,9.88-26.16,12.71c-0.82,0.25-1.77,0.44-2.36,0.97
	c-0.47,0.41-0.75,1.34-0.63,1.94c0.1,0.48,0.9,1.03,1.48,1.16c0.65,0.14,1.46-0.03,2.11-0.28c6.84-2.58,13.76-5,20.47-7.87
	c6.6-2.83,12.99-6.18,18.21-11.12c5.02-4.74,4.1-10.18-2.11-13.45c-0.76-0.4-1.56-0.72-2.38-1c-7.94-2.76-16.15-3.63-24.54-2.94
	C324.44,369.11,320.75,369,317.07,369.14z M279.21,401.05c-0.43,0.01-0.87,0.01-1.3,0.01c-8.33,0.11-16.38-1.4-24.22-4
	c-2.18-0.72-2.42-2.07-0.67-3.52c1.25-1.03,2.64-1.94,4.07-2.75c8.77-4.95,18.22-8.34,27.91-11.19c0.96-0.28,2.06-0.47,2.79-1.04
	c0.51-0.4,0.74-1.43,0.64-2.12c-0.06-0.4-0.96-0.85-1.56-0.99c-0.59-0.13-1.29,0.05-1.92,0.2c-13.17,3.1-25.93,7.23-37.78,13.67
	c-1.62,0.88-3.21,1.92-4.55,3.15c-3.45,3.16-2.94,7.01,1.39,8.89c3.52,1.53,7.25,2.86,11.03,3.54c6.52,1.18,13.15,1.84,19.74,2.61
	c4.06,0.47,8.15,0.75,12.3,1.12C286.69,402.21,285.28,400.93,279.21,401.05z"/>
</svg>
