<?xml version="1.0" encoding="utf-8"?>
<!-- Generator: Adobe Illustrator 27.4.0, SVG Export Plug-In . SVG Version: 6.00 Build 0)  -->
<svg version="1.1" id="Layer_1" xmlns="http://www.w3.org/2000/svg" x="0px" y="0px"
	 viewBox="0 0 600 600" style="enable-background:new 0 0 600 600;" xml:space="preserve">
<path d="M299.96,600c-165-0.79-296.11-131.29-299.88-292.91C-3.89,136.62,134.04-3.3,306.33,0.06
	c163.15,3.18,297.28,137.05,293.6,306.96C596.41,469.2,464.83,599.13,299.96,600z M573.17,296.7
	C571.52,147.97,450.03,27.5,300.82,26.83c-151.4-0.68-275.7,124.34-274.01,276.08C28.48,451.87,150.27,573.82,301.87,573
	C449.47,572.2,574.36,452.14,573.17,296.7z M57.34,266.33c0,22.53,0,44.84,0,67.37c69.68,0,139.25,0,209.04,0
	c0,69.78,0,139.33,0,208.88c22.54,0,44.85,0,67.39,0c0-69.66,0-139.21,0-208.99c69.8,0,139.36,0,208.93,0c0-22.53,0-44.84,0-67.37
	c-69.68,0-139.25,0-209.04,0c0-69.78,0-139.33,0-208.88c-22.54,0-44.85,0-67.31,0c0,69.61,0,139.11,0,208.99
	C196.47,266.33,126.9,266.33,57.34,266.33z"/>
</svg>
