<?xml version="1.0" encoding="utf-8"?>
<!-- Generator: Adobe Illustrator 27.4.0, SVG Export Plug-In . SVG Version: 6.00 Build 0)  -->
<svg version="1.1" id="Layer_1" xmlns="http://www.w3.org/2000/svg" x="0px" y="0px"
	 viewBox="0 0 600 600" style="enable-background:new 0 0 600 600;" xml:space="preserve">
<path d="M341.67,0c0,86.02,0,172.04,0,258.33c86.19,0,172.26,0,258.33,0c0,27.78,0,55.56,0,83.33c-63.47,0-126.93-0.02-190.4,0.04
	c-2.19,0-3.72-0.63-5.28-2.16c-23.35-22.79-46.76-45.52-70.16-68.26c-19.67-19.11-39.35-38.21-59-57.34
	c-5.17-5.04-10.3-10.12-15.34-15.29c-0.78-0.8-1.2-2.12-1.42-3.27c-0.24-1.27-0.06-2.63-0.06-3.95c0-63.81,0-127.63-0.01-191.44
	C286.11,0,313.89,0,341.67,0z M341.67,600c0-56.17,0-112.34-0.01-168.51c0-8.82,0.05-17.64-0.06-26.45
	c-0.02-1.16-0.65-2.52-1.44-3.41c-2.31-2.59-4.79-5.02-7.28-7.44c-23.03-22.42-46.09-44.81-69.13-67.22
	c-22.69-22.08-45.37-44.16-68-66.3c-1.71-1.67-3.37-2.39-5.79-2.39c-63.32,0.07-126.64,0.05-189.96,0.05c0,27.78,0,55.56,0,83.33
	c86.07,0,172.14,0,258.33,0c0,86.29,0,172.31,0,258.33C286.11,600,313.89,600,341.67,600z M47.39,16.93
	C34.71,29.8,22.47,42.24,10.09,54.82c181.56,176.77,362.86,353.31,544.24,529.9c12.5-12.72,24.75-25.19,37.27-37.93
	C410.04,370.01,228.71,193.47,47.39,16.93z"/>
</svg>
