<?xml version="1.0" encoding="utf-8"?>
<!-- Generator: Adobe Illustrator 27.4.0, SVG Export Plug-In . SVG Version: 6.00 Build 0)  -->
<svg version="1.1" id="Layer_1" xmlns="http://www.w3.org/2000/svg" x="0px" y="0px"
	 viewBox="0 0 600 600" style="enable-background:new 0 0 600 600;" xml:space="preserve">
<path d="M600.42,258.75c0,27.78,0,55.56,0,83.33c-1.18,0.05-2.35,0.15-3.53,0.15c-83.6,0.01-167.2,0.01-250.8,0.01
	c-0.69,0-1.39,0.02-2.08,0c-1.22-0.04-1.8,0.54-1.76,1.76c0.02,0.76,0,1.53,0,2.29c0,83.53,0,167.06-0.01,250.59
	c0,1.18-0.1,2.35-0.15,3.53c-27.78,0-55.56,0-83.33,0c-0.05-1.25-0.15-2.49-0.15-3.74c-0.01-83.46-0.01-166.92-0.01-250.38
	c0-0.76-0.02-1.53,0-2.29c0.04-1.22-0.54-1.8-1.76-1.76c-0.76,0.02-1.53,0-2.29,0c-83.46,0-166.92,0-250.38-0.01
	c-1.25,0-2.49-0.1-3.74-0.15c0-27.78,0-55.56,0-83.33c1.25-0.05,2.49-0.15,3.74-0.15c83.39-0.01,166.78-0.01,250.18-0.01
	c0.83,0,1.67-0.02,2.5,0c1.22,0.03,1.8-0.54,1.76-1.76c-0.02-0.76,0-1.53,0-2.29c0-83.53,0-167.06,0.01-250.59
	c0-1.18,0.1-2.35,0.15-3.53c27.78,0,55.56,0,83.33,0c0.05,1.18,0.15,2.35,0.15,3.53c0.01,83.74,0.01,167.48,0.01,251.22
	c0,3.43,0,3.43,3.43,3.43c83.74,0,167.48,0,251.22,0.01C598.07,258.6,599.24,258.7,600.42,258.75z"/>
</svg>
