<?xml version="1.0" encoding="utf-8"?>
<!-- Generator: Adobe Illustrator 27.4.0, SVG Export Plug-In . SVG Version: 6.00 Build 0)  -->
<svg version="1.1" id="Layer_1" xmlns="http://www.w3.org/2000/svg" x="0px" y="0px"
	 viewBox="0 0 600 600" style="enable-background:new 0 0 600 600;" xml:space="preserve">
<path d="M302.5,0c0.42,0,0.83,0,1.25,0c0.35,0.48,0.65,1.02,1.07,1.44c3.97,3.98,7.96,7.94,11.94,11.92
	c23.43,23.41,46.87,46.81,70.28,70.25c1.21,1.22,2.47,1.74,4.22,1.74c37.71-0.06,75.41-0.07,113.12-0.05c5.19,0,5.13-0.79,4.91,5.07
	c-0.01,0.21,0,0.42,0,0.62c-0.01,35.34,0.14,70.69-0.19,106.03c-0.06,6.37,1.81,10.71,6.31,15.16c28.37,28,56.44,56.29,84.6,84.49
	c0,0.28,0,0.56,0,0.83c-0.7,0.53-1.47,1-2.09,1.61c-11.81,11.85-23.59,23.74-35.41,35.58c-17.17,17.2-34.36,34.38-51.59,51.52
	c-1.4,1.4-1.84,2.81-1.84,4.77c0.14,40.48,0.19,80.97,0.28,121.45c0,1.6-0.63,2.28-2.23,2.25c-2.71-0.05-5.42-0.01-8.12-0.01
	c-38.26-0.04-76.51-0.08-114.77-0.05c-1.03,0-2.3,0.58-3.04,1.31c-7.02,6.92-13.93,13.96-20.9,20.93
	c-20.64,20.6-41.3,41.18-61.94,61.78c-0.37,0.37-0.57,0.9-0.85,1.36c-0.42,0-0.83,0-1.25,0c-0.29-0.44-0.52-0.96-0.89-1.32
	c-7.96-7.95-15.92-15.89-23.91-23.81c-17.41-17.24-34.85-34.46-52.26-51.71c-2.17-2.15-4.4-4.26-6.34-6.61
	c-1.2-1.46-2.45-1.93-4.27-1.93c-38.95,0.05-77.89,0.05-116.84,0.06c-2.71,0-2.93-0.2-2.93-2.52c0.01-36.18,0.02-72.35,0.04-108.53
	c0-3.12,0.2-6.25,0.05-9.37c-0.05-1.11-0.57-2.46-1.34-3.23C58.41,361.77,29.2,332.56,0,303.33c0-0.28,0-0.56,0-0.83
	c0.76-0.58,1.59-1.08,2.26-1.75c11.57-11.6,23.1-23.23,34.66-34.83c16.07-16.13,32.11-32.28,48.27-48.31
	c2.7-2.67,3.77-5.38,3.76-9.26c-0.17-39.29-0.1-78.58-0.1-117.87c0-5.17,0-5.17,5.26-5.17c33.88-0.01,67.75-0.02,101.63-0.02
	c6.87,0,13.74,0.09,20.61,0.05c0.72,0,1.59-0.46,2.14-0.97c2.19-2.02,4.31-4.13,6.42-6.24c25-24.97,49.99-49.93,74.97-74.92
	C300.85,2.23,301.63,1.07,302.5,0z M476.67,481.67c0-1.07,0-1.89,0-2.71c0-32.43,0.03-64.86-0.06-97.29
	c-0.01-2.46,0.76-4.14,2.45-5.81c16.78-16.7,33.5-33.47,50.25-50.21c7.81-7.8,15.65-15.58,23.47-23.37
	c2.43-2.42,2.45-5.37,0.07-7.71c-1.48-1.46-2.96-2.93-4.4-4.43c-17.3-17.94-34.59-35.89-51.9-53.81
	c-5.89-6.09-11.82-12.14-17.8-18.13c-1.47-1.48-2.12-3.02-2.11-5.15c0.06-30.69,0.04-61.38,0.04-92.07c0-0.81,0-1.62,0-2.62
	c-1.03,0-1.85,0-2.67,0c-31.39,0-62.77,0.01-94.16-0.04c-1.07,0-2.45-0.32-3.16-1.02c-8.94-8.73-17.86-17.49-26.64-26.37
	c-14.5-14.67-28.88-29.44-43.36-44.13c-0.56-0.57-1.52-0.77-2.32-1.07c-2.34-0.89-3.78,0.35-5.37,1.93
	c-22.94,22.81-45.95,45.55-68.88,68.37c-1.72,1.71-3.4,2.38-5.82,2.38c-33.33-0.07-66.66-0.05-99.99-0.05c-0.81,0-1.63,0-2.64,0
	c0,1.01,0,1.83,0,2.64c0,33.19-0.03,66.38,0.06,99.57c0.01,2.76-0.83,4.68-2.73,6.57c-7.33,7.3-14.5,14.75-21.79,22.09
	c-16.49,16.6-33,33.19-49.52,49.75c-3,3.01-3.15,5.7-0.22,8.74c12.52,13,25.1,25.94,37.59,38.97
	c11.73,12.22,23.35,24.54,35.09,36.75c1.18,1.23,1.54,2.42,1.54,4.04c-0.04,30.55-0.03,61.11-0.03,91.66c0,0.81,0,1.61,0,2.55
	c1.09,0,1.91,0,2.74,0c31.18,0,62.36,0.01,93.53-0.03c1.42,0,2.46,0.38,3.49,1.38c7.15,6.99,14.4,13.87,21.54,20.87
	c16.75,16.43,33.45,32.92,50.17,49.38c1.65,1.62,5.23,1.7,6.78,0.23c4.22-4.02,8.49-7.99,12.7-12.03
	c19.81-18.97,39.63-37.92,59.36-56.96c2.1-2.03,4.17-2.93,7.13-2.92c31.59,0.1,63.19,0.06,94.78,0.06
	C474.72,481.67,475.54,481.67,476.67,481.67z M524.99,295.8c-0.48,0.55-0.84,1.02-1.26,1.44c-13.95,14.03-27.88,28.09-41.87,42.09
	c-27.05,27.06-54.14,54.08-81.2,81.13c-32.65,32.65-65.29,65.32-97.93,97.97c-1.28,1.28-2.6,2.51-3.81,3.85
	c-1,1.11-1.67,0.95-2.68-0.07c-7.73-7.88-15.48-15.74-23.29-23.55c-13.65-13.64-27.36-27.23-41.03-40.85
	c-8.36-8.33-16.69-16.69-25.04-25.03c-8.35-8.35-16.69-16.69-25.04-25.04c-8.35-8.35-16.69-16.69-25.04-25.04
	c-8.3-8.3-16.59-16.59-24.89-24.89c-8.35-8.35-16.69-16.69-25.04-25.04c-8.35-8.35-16.7-16.69-25.03-25.04
	c-1.91-1.92-3.73-3.93-5.67-5.81c-1.08-1.04-1.14-1.77-0.02-2.88c9.82-9.81,19.57-19.7,29.39-29.52
	c33.28-33.3,66.56-66.59,99.86-99.87c31.83-31.81,63.68-63.58,95.47-95.42c1.38-1.39,2.06-0.89,3.15,0.21
	c23.68,23.74,47.4,47.45,71.1,71.17c17.72,17.73,35.42,35.47,53.14,53.19c23.95,23.96,47.92,47.9,71.88,71.85
	c7.85,7.85,15.68,15.74,23.51,23.61C524.09,294.7,524.46,295.18,524.99,295.8z M299.15,459.21c1.57-0.14,3.14-0.21,4.67-0.45
	c1.29-0.21,1.89,0.09,2.08,1.49c0.22,1.63,0.42,3.51,2.23,4.2c2.24,0.85,4.57,1.51,6.9,2.07c1.97,0.48,2.95-0.36,2.92-2.51
	c-0.03-1.94,0.71-3.17,3.08-3.14c2.41,0.03,4.9-0.14,7.21-0.77c4.22-1.15,6.34-4.49,7.47-8.48c0.35-1.22,0.85-1.81,2.13-1.62
	c2.26,0.34,4.1-0.67,5.68-2.06c2.07-1.84,3.9-3.96,6-5.76c3.84-3.3,2.75-7.33,1.9-11.33c-0.38-1.81-1.26-3.55-1.4-5.36
	c-0.35-4.66-2.82-7.73-6.8-9.7c-2.97-1.47-6-2.85-9.09-4.05c-2.51-0.97-4.12-2.51-5.04-5.1c-1.29-3.62-0.51-6.79,0.88-10.22
	c2.04-5.01,5.59-7.34,10.78-7.7c1.51-0.11,3.01-0.46,4.51-0.69c2.37-0.35,4.74-0.96,7.11-0.97c4.3-0.03,8.6,0.27,12.9,0.49
	c8.54,0.44,17.01,1.33,25.03,4.57c2.52,1.02,4.68,0.98,7.46,0.13c5.47-1.67,7.65-6.37,11.02-10c0.35-0.38,0.31-1.17,0.36-1.78
	c0.37-4.49,0.57-9,1.1-13.48c1.07-9.16,2.28-18.29,3.48-27.43c0.63-4.76-1.04-8.84-3.41-12.79c-2.67-4.45-5.27-8.94-7.8-13.48
	c-0.59-1.05-1.1-2.38-1.02-3.53c0.29-4.21,0.45-8.49,1.37-12.58c1.86-8.32,4.17-16.51,4.51-25.13c0.2-5.1,1.2-10.18,1.43-15.28
	c0.26-5.82-0.2-11.68,0.11-17.49c0.36-6.73-0.24-13.33-2.1-19.74c-2.53-8.74-5.77-17.18-11.76-24.31
	c-2.99-3.55-5.97-7.17-8.43-11.09c-2.62-4.17-5.69-7.86-9.31-11.13c-3.14-2.83-6.1-5.99-9.64-8.21
	c-7.27-4.56-14.85-8.62-22.34-12.83c-7.5-4.22-15.68-6.4-24.19-6.87c-8.73-0.48-17.49-0.44-26.24-0.31
	c-3.85,0.06-7.7,0.86-11.52,1.45c-2.93,0.46-5.83,1.11-8.74,1.7c-0.67,0.14-1.65,0.18-1.91,0.62c-1.05,1.75-2.66,1.42-4.22,1.47
	c-0.97,0.03-2.11-0.18-2.87,0.26c-6.85,3.94-14.83,5.02-21.79,8.9c-4.54,2.53-9.03,4.85-12.94,8.37
	c-5.19,4.69-10.99,8.72-16.03,13.55c-3.97,3.81-7.47,8.21-10.67,12.71c-2.3,3.24-3.99,6.99-5.56,10.67
	c-2.08,4.9-4.11,9.86-5.56,14.97c-1.54,5.44-2.42,11.08-3.48,16.65c-0.39,2.03-0.64,4.12-0.69,6.18
	c-0.22,9.97-0.15,19.96-0.58,29.92c-0.26,5.88,0.44,11.49,2.71,16.88c4.01,9.52,5.37,19.62,6.5,29.75
	c0.38,3.44,0.12,6.98,0.74,10.36c0.89,4.83,2.3,9.56,3.52,14.32c0.53,2.05,0.14,3.89-0.64,5.85c-2.09,5.19-4.03,10.45-5.87,15.73
	c-0.81,2.32-0.38,4.65,0.84,6.82c1.32,2.36,2.49,4.81,3.92,7.1c1.9,3.04,3.76,6.17,6.09,8.86c1.41,1.63,3.71,3.54,5.59,3.52
	c5.28-0.07,10.57-0.92,15.82-1.76c2.42-0.39,4.7-1.64,7.11-2.17c6.51-1.4,13.11-0.81,19.7-0.9c6.54-0.09,12.6,1.57,18.68,3.5
	c1.88,0.6,2.85,2.01,2.68,3.75c-0.27,2.64-1,5.23-1.54,7.83c-0.2,0.97-0.79,2.06-0.54,2.89c0.55,1.78-0.09,2.89-1.28,4.04
	c-2.19,2.12-4.43,4.21-6.41,6.53c-3.11,3.63-4.98,7.78-4.72,12.75c0.11,2-0.23,4.02-0.27,6.03c-0.08,4.08-0.43,8.19-0.01,12.23
	c0.2,1.92,1.55,4.08,3.03,5.42c1.4,1.26,2.61-0.9,3.86-1.6c2.64-1.47,4.32-0.77,5.62,1.96c1.33,2.78,2.78,5.59,4.66,8
	c1.78,2.29,3.65,2.28,6.1,0.88c3.22-1.84,3.75-1.59,4.44,2.02c0.1,0.54,0.12,1.14,0.37,1.61c0.23,0.43,0.72,0.99,1.12,1.01
	c2.35,0.12,4.72,0.24,7.06,0.05c0.69-0.06,1.73-1.03,1.87-1.73C299.35,462.22,299.15,460.64,299.15,459.21z M259.67,366.93
	c3.98,0.02,7.1-2.5,10.67-3.68c3.45-1.14,6.48-3.14,8.87-5.98c1.92-2.28,3.84-4.56,5.77-6.84c4.25-5.04,7.44-10.39,6.86-17.45
	c-0.38-4.67-0.57-9.15-5.04-12.05c-1.15-0.74-2.11-1.81-3.04-2.84c-2.48-2.72-5.53-4.32-9.12-5.02c-1.97-0.39-3.9-0.95-5.83-1.52
	c-5.84-1.72-11.78-2.63-17.87-2.31c-8.82,0.47-17.44,2.19-25.95,4.5c-0.68,0.18-1.4,0.7-1.82,1.27c-2.25,3.08-4.53,6.15-6.56,9.37
	c-1.06,1.67-1.82,3.59-2.37,5.5c-0.53,1.85-0.59,3.8-2.26,5.2c-0.47,0.39-0.58,1.4-0.6,2.12c-0.13,7.5,1.95,14.37,6.06,20.63
	c0.32,0.49,0.8,0.96,1.32,1.22c1.63,0.81,3.47,1.29,4.94,2.31c3.48,2.41,7.23,3.97,11.35,4.94c2.39,0.56,4.63,0.04,6.93,0.08
	c3.26,0.05,6.51,0.35,9.77,0.55C254.39,366.93,257.03,366.92,259.67,366.93z M358.55,311.15c-2.69,0.14-5.43,0.01-8.06,0.47
	c-3.68,0.64-7.29,1.65-10.9,2.64c-6.97,1.91-11.1,6.46-12.42,13.57c-0.21,1.14-0.39,2.42-1.02,3.34c-2.15,3.1-2.32,6.52-2.4,10.12
	c-0.12,4.95,1.18,8.83,4.95,12.47c6.09,5.87,11.95,11.44,20.73,13.34c5.46,1.18,10.71,2.78,16.33,1.65
	c5.4-1.09,11.05-1.55,16.14-3.47c8.99-3.39,13.56-11.23,17.15-19.63c0.4-0.92,0.46-2.03,0.48-3.06c0.2-8.36-1.83-15.87-7.25-22.59
	c-5.06-6.28-11.75-8.55-19.18-9.12c-4.8-0.37-9.69,0.32-14.54,0.53C358.56,311.33,358.56,311.24,358.55,311.15z M322.12,382.12
	c-3.68-7.3-7.6-14.47-11.51-21.65c-0.58-1.07-1.42-2.16-2.41-2.81c-0.85-0.56-2.18-0.89-3.16-0.68c-6.2,1.36-9.75,6.04-12.4,11.17
	c-2.42,4.7-3.79,9.93-5.86,14.82c-2.38,5.64-4.63,11.18-4.48,17.55c0.07,2.94-0.47,5.75,1.64,8.22c0.38,0.44,0.5,1.14,0.61,1.75
	c0.73,3.94,3.01,6.33,6.85,7.54c5.15,1.63,9.71-0.1,12.2-4.89c0.22-0.43,0.49-0.84,0.8-1.21c1.33-1.56,2.11-1.57,3.54-0.11
	c0.53,0.55,1.04,1.12,1.59,1.64c2.47,2.34,4.25,2.43,6.63-0.01c1.73-1.78,3.27-3.78,4.7-5.81c0.77-1.1,1.47-2.45,1.61-3.76
	c0.55-4.89,0.85-9.82,1.34-15.81C323.46,386.73,323.19,384.23,322.12,382.12z"/>
</svg>
