<?xml version="1.0" encoding="utf-8"?>
<!-- Generator: Adobe Illustrator 27.4.0, SVG Export Plug-In . SVG Version: 6.00 Build 0)  -->
<svg version="1.1" id="Layer_1" xmlns="http://www.w3.org/2000/svg" x="0px" y="0px"
	 viewBox="0 0 600 600" style="enable-background:new 0 0 600 600;" xml:space="preserve">
<path d="M299.91,600C135.58,599.22,4,469.43,0.09,307.25C-4.02,137.07,133.57-3.3,306.37,0.06c163.13,3.17,297.26,137.08,293.55,307
	C596.39,469.22,464.81,599.16,299.91,600z M573.17,296.74c-1.64-148.77-123-268.91-271.67-269.91
	C149.54,25.8,25.24,151.13,26.81,302.65C28.36,451.76,150.17,573.69,301.62,573C449.35,572.33,574.35,452.21,573.17,296.74z
	 M129.2,126.34c1.2,0,1.97,0,2.74,0c32.88,0,65.76-0.01,98.64,0.03c1.94,0,3.28-0.46,4.71-1.94c7.04-7.25,14.3-14.3,21.45-21.45
	c12.81-12.81,25.6-25.65,38.42-38.45c2.04-2.03,4.21-3.93,6.23-5.98c1.06-1.07,1.72-0.92,2.74,0.11
	c21.54,21.57,43.16,43.07,64.63,64.71c2.24,2.26,4.44,3.05,7.53,3.04c29.93-0.1,59.86-0.06,89.78-0.06c3.36,0,3.37,0,3.37,3.29
	c-0.01,30.06,0.02,60.12-0.13,90.18c-0.02,3.07,1.04,5.12,3.09,7.15c11.38,11.26,22.7,22.6,34.03,33.92
	c11.63,11.62,23.23,23.27,34.89,34.85c1.15,1.14,1.35,1.85,0.13,3.06c-6.23,6.18-12.39,12.43-18.59,18.65
	c-17.5,17.56-35.01,35.11-52.46,52.72c-0.64,0.65-1.02,1.85-1.02,2.79c-0.02,31.82,0,63.63,0.05,95.45
	c0.01,5.18,0.07,5.18-5.05,5.18c-31.61,0-63.23,0.01-94.84-0.04c-1.94,0-3.28,0.46-4.73,1.91c-14.74,14.86-29.59,29.61-44.41,44.39
	c-7.01,6.99-14.07,13.94-21.04,20.97c-1.5,1.51-2.44,1.57-4.04-0.04c-17.97-18.09-36.02-36.1-54.06-54.12
	c-4.17-4.16-8.33-8.33-12.59-12.4c-0.55-0.52-1.65-0.64-2.5-0.64c-20.65-0.03-41.31-0.03-61.96-0.03c-10.75,0-21.5,0-32.25,0
	c-2.69,0-2.74,0-2.75-2.78c-0.02-19.95-0.03-39.89-0.03-59.84c0-10.96-0.03-21.91,0.1-32.87c0.03-2.5-0.69-4.24-2.51-6.04
	c-16.04-15.85-31.96-31.81-47.91-47.75c-6.61-6.6-13.18-13.24-19.84-19.79c-1.4-1.37-1.55-2.25-0.06-3.73
	c12.46-12.37,24.86-24.8,37.25-37.24c10.51-10.55,21.01-21.1,31.4-31.76c0.95-0.97,1.58-2.7,1.59-4.07
	c0.07-32.66,0.03-65.32,0.01-97.98C129.2,128.67,129.2,127.64,129.2,126.34z M155.72,153.24c-0.06,0.6-0.11,0.87-0.11,1.15
	c0.01,25.71,0.03,51.41,0.03,77.12c0,1.97,0.05,3.94-0.15,5.89c-0.09,0.89-0.49,1.94-1.1,2.57c-7.43,7.66-14.87,15.31-22.4,22.87
	c-12.15,12.19-24.37,24.3-36.56,36.45c-2.01,2-2.16,4.06-0.33,6.32c1.19,1.47,2.52,2.83,3.83,4.2
	c18.22,18.92,36.44,37.84,54.69,56.73c1.3,1.35,1.94,2.74,1.94,4.64c-0.01,24.51,0.06,49.02,0.05,73.53c0,1.41,0.16,1.97,1.77,1.97
	c23.89-0.06,47.77-0.06,71.66-0.07c1.33,0,2.71-0.13,3.99,0.13c1.16,0.24,2.48,0.68,3.3,1.47c15.8,15.38,31.53,30.84,47.3,46.26
	c3.56,3.49,7.12,6.98,10.83,10.31c2.24,2.02,4.21,1.82,6.33-0.21c19.28-18.55,38.59-37.08,57.8-55.7c1.73-1.67,3.43-2.31,5.75-2.31
	c25.64,0.06,51.28,0.04,76.92,0.04c0.61,0,1.23-0.06,1.96-0.1c0.03-0.52,0.07-0.92,0.07-1.33c-0.02-25.91-0.01-51.83-0.12-77.74
	c-0.01-2.97,0.91-5.15,3-7.23c19.4-19.24,38.72-38.56,58.07-57.85c2.42-2.41,2.47-4.89,0.09-7.34
	c-6.09-6.23-12.18-12.45-18.25-18.69c-13.61-14-27.18-28.03-40.84-41.98c-1.38-1.4-2.11-2.71-2.11-4.72
	c0.06-24.37,0.04-48.74,0.04-73.11c0-1.02,0-2.05,0-3.26c-1,0-1.76,0-2.52,0c-15.1-0.01-30.21,0-45.31-0.04
	c-10.11-0.02-20.23-0.07-30.34-0.22c-1.08-0.02-2.42-0.48-3.17-1.21c-8.77-8.6-17.51-17.25-26.15-25.99
	c-9.68-9.78-19.24-19.7-28.9-29.5c-3.38-3.43-4.88-3.36-8.23-0.05c-17.96,17.79-35.99,35.52-53.82,53.44
	c-2.64,2.65-5.24,3.61-8.84,3.59c-25.57-0.11-51.14-0.06-76.71-0.06C158.09,153.24,156.99,153.24,155.72,153.24z M297.78,480.1
	c-0.98-0.89-2.2-1.93-3.33-3.06c-27.58-27.55-55.15-55.1-82.71-82.67c-30.74-30.74-61.47-61.5-92.24-92.21
	c-1.36-1.35-1.43-2.2-0.06-3.58c12.33-12.31,24.58-24.69,36.88-37.01c32.11-32.15,64.23-64.3,96.37-96.41
	c15.8-15.78,31.68-31.48,47.53-47.22c0.49-0.49,1.02-0.94,1.4-1.28c60.05,60.05,120.02,120.01,179.83,179.81
	C420.37,357.55,359.16,418.75,297.78,480.1z M299.15,428.83c1.44-0.09,2.62-0.08,3.76-0.26c1.06-0.17,1.39,0.19,1.74,1.2
	c0.43,1.24,1.08,2.83,2.1,3.36c1.74,0.91,3.83,1.16,5.8,1.59c1.21,0.26,1.9-0.41,1.92-1.61c0.04-2.32,1.42-2.92,3.43-2.93
	c1.12,0,2.23-0.2,3.35-0.31c3.15-0.3,5.57-1.97,6.66-4.78c0.95-2.44,2.16-3.85,4.82-4.02c0.7-0.05,1.48-0.55,2.02-1.05
	c2.29-2.16,4.65-4.28,6.66-6.69c0.77-0.92,1.06-2.63,0.87-3.88c-0.46-3.03-1.51-5.98-1.97-9.01c-0.48-3.18-2.26-5.28-4.9-6.66
	c-2.6-1.36-5.38-2.35-8.05-3.58c-0.93-0.43-2.01-0.87-2.6-1.63c-3.64-4.7-0.96-14.27,4.65-16.1c3.22-1.05,6.67-2.04,9.99-1.98
	c11.89,0.22,23.92-0.25,35.26,4.53c0.97,0.41,2.33,0.22,3.42-0.04c4.17-1.01,6.85-3.95,9.05-7.38c0.61-0.95,1.17-2.09,1.29-3.19
	c1.13-9.68,1.93-19.41,3.3-29.06c0.83-5.84-0.08-10.88-3.56-15.69c-2.16-2.98-3.69-6.44-5.42-9.72c-0.34-0.65-0.53-1.51-0.45-2.23
	c0.42-3.9,0.58-7.88,1.5-11.67c3.19-13.24,4.22-26.69,4.37-40.24c0.07-6.36,0.62-12.76-1.31-19.02c-1.58-5.13-2.59-10.48-5.49-15.09
	c-2.05-3.26-4.4-6.33-6.64-9.47c-1.91-2.68-3.6-5.58-5.83-7.97c-4.39-4.7-8.63-9.74-13.77-13.5c-5.83-4.27-12.6-7.27-18.92-10.88
	c-4.2-2.4-8.74-3.81-13.47-4.59c-9.77-1.6-19.64-1.33-29.43-0.66c-5.74,0.39-11.66,1.09-16.99,3.86c-0.29,0.15-0.7,0.04-1.04,0.12
	c-1.88,0.43-3.79,0.78-5.63,1.36c-3.67,1.17-7.29,2.47-10.93,3.73c-0.66,0.23-1.34,0.43-1.94,0.76c-2,1.1-3.98,2.25-5.95,3.4
	c-1.21,0.7-2.48,1.32-3.58,2.16c-2,1.53-3.82,3.31-5.85,4.8c-6.69,4.87-12.99,10.32-17.58,17.11c-3.79,5.62-6.54,12.09-8.88,18.5
	c-2.07,5.68-2.98,11.79-4.33,17.73c-0.36,1.56-0.61,3.18-0.65,4.78c-0.21,8.77-0.29,17.54-0.53,26.31
	c-0.1,3.79,0.46,7.42,1.96,10.88c2.55,5.91,3.97,12.08,4.82,18.45c1.14,8.58,0.87,17.4,4.13,25.66c0.88,2.23,0.3,4.3-0.67,6.47
	c-1.61,3.56-3.05,7.23-4.19,10.96c-0.5,1.64-0.71,3.87,0.02,5.29c2.42,4.72,5.14,9.32,8.12,13.72c1.75,2.59,4.53,4.01,7.87,3.5
	c3.18-0.48,6.45-0.75,9.51-1.69c11.84-3.64,23.66-3.23,35.5-0.28c3.65,0.91,4.59,2.51,3.84,6.2c-0.37,1.83-1.75,3.62-1.61,5.34
	c0.22,2.61-0.91,4.04-2.64,5.52c-1.22,1.04-2.3,2.27-3.37,3.47c-2.65,2.98-4.22,6.36-4.16,10.49c0.04,3.01-0.43,6.03-0.42,9.04
	c0.01,2.43,0.03,4.95,0.67,7.27c1.01,3.7,1.95,3.92,5.11,1.98c2.4-1.47,3.5-0.97,4.66,1.63c0.94,2.09,2.17,4.06,3.41,6
	c1.15,1.8,2.88,2.08,4.81,1.38c1.03-0.37,2.05-0.77,3.12-1.16c0.23,0.44,0.37,0.68,0.47,0.93c0.45,1.17,0.57,2.84,1.41,3.38
	c0.97,0.62,2.58,0.23,3.91,0.28c0.28,0.01,0.56,0.01,0.84-0.01c2.28-0.15,3.14-1.14,2.92-3.4
	C299.42,429.96,299.27,429.42,299.15,428.83z M258.13,353.93c0.56,0.03,1.13,0.01,1.68,0.1c6.97,1.22,13.12-1.26,19.11-4.3
	c1.29-0.65,2.58-1.54,3.52-2.62c2.67-3.06,5.29-6.18,7.67-9.46c1.93-2.67,3.02-5.6,3.28-9.11c0.44-5.85-1.36-10.24-6.14-13.54
	c-1.72-1.19-3.19-3.02-5.08-3.61c-4.53-1.43-9.19-2.57-13.88-3.37c-10.01-1.71-19.65,0.85-29.28,3.1c-0.54,0.13-1.09,0.64-1.43,1.12
	c-1.5,2.11-3.18,4.15-4.33,6.44c-1.82,3.64-4.42,7.4-4.63,11.22c-0.44,8.06,0.96,15.93,9.75,19.75c3,1.3,5.93,3.01,9.07,3.68
	c3.45,0.74,7.1,0.5,10.66,0.69C258.13,353.98,258.13,353.95,258.13,353.93z M320.61,340.34c1.56,2.37,3.73,4.37,5.84,6.32
	c7.07,6.53,15.5,9.76,25.09,9.2c4.01-0.23,7.92-1.85,11.94-2.29c8.34-0.92,18.43-14.29,17.04-22.37c-0.39-2.28-0.59-4.63-1.35-6.79
	c-3.45-9.89-10.04-15.44-20.75-15.56c-3.57-0.04-7.16,0.57-10.72,0.38c-5.43-0.28-10.62,0.78-15.75,2.22
	c-5.14,1.44-8.43,4.8-9.59,10.12c-0.27,1.22-0.48,2.57-1.16,3.56c-1.91,2.79-2.21,5.84-2.37,9.16
	C319.39,336.33,319.51,338.66,320.61,340.34z M307.7,391.67c2.23,1.8,3.47,1.8,5.52-0.12c2.77-2.59,4.97-5.5,5.13-9.54
	c0.1-2.52,0.38-5.03,0.63-7.54c0.33-3.37-0.18-6.58-1.77-9.57c-2.8-5.25-5.54-10.54-8.47-15.71c-2.23-3.93-4.44-4.53-7.97-1.63
	c-2.65,2.17-5.29,4.85-6.74,7.87c-3.01,6.28-5.49,12.86-7.65,19.5c-0.97,2.98-0.68,6.38-0.85,9.6c-0.03,0.64,0.4,1.31,0.67,1.95
	c0.57,1.34,1.29,2.63,1.73,4.01c1.11,3.47,3.74,5.03,7.04,5.49c3.35,0.47,5.99-0.92,7.77-3.85c0.61-1,1.3-1.96,2.05-3.09
	C305.85,390,306.73,390.89,307.7,391.67z"/>
</svg>
