<?xml version="1.0" encoding="utf-8"?>
<!-- Generator: Adobe Illustrator 27.4.0, SVG Export Plug-In . SVG Version: 6.00 Build 0)  -->
<svg version="1.1" id="Layer_1" xmlns="http://www.w3.org/2000/svg" x="0px" y="0px"
	 viewBox="0 0 600 600" style="enable-background:new 0 0 600 600;" xml:space="preserve">
<path d="M304.59,0c0.19,0.34,0.32,0.74,0.58,1.01c26.32,26.31,52.73,52.55,78.92,79c3.79,3.82,7.5,5.45,13,5.41
	c35.97-0.29,71.94-0.17,107.91-0.13c5.43,0.01,5.17-0.78,5.16,5.08c-0.07,37.85-0.07,75.69-0.01,113.54c0,1.14,0.71,2.55,1.55,3.39
	c21.49,21.62,43.05,43.17,64.59,64.74c8.19,8.2,16.37,16.42,24.56,24.64c0,0.28,0,0.56,0,0.83c-1.14,0.99-2.34,1.91-3.4,2.97
	c-16.56,16.53-33.12,33.06-49.66,49.61c-11.92,11.94-23.79,23.93-35.73,35.84c-1.53,1.52-2.17,3.03-2.15,5.27
	c0.15,15.27,0.12,30.55,0.14,45.82c0,1.37,0,2.74,0,4.38c-3.36-3.2-6.56-6.19-9.7-9.24c-7.04-6.8-14.03-13.65-21.1-20.42
	c-1.26-1.21-1.76-2.51-1.75-4.23c0.05-8.75,0.09-17.5-0.02-26.25c-0.03-2.13,0.64-3.62,2.13-5.11
	c20.8-20.73,41.56-41.52,62.33-62.28c3.93-3.93,7.88-7.83,11.82-11.75c2.2-2.19,2.19-5.25,0.08-7.42
	c-16.65-17.02-33.33-34.03-49.93-51.1c-8.13-8.36-16.07-16.89-24.18-25.27c-1.56-1.61-2.25-3.25-2.24-5.52
	c0.07-30.55,0.04-61.1,0.04-91.66c0-0.83,0-1.66,0-2.83c-0.86,0-1.66,0-2.46,0c-31.32,0-62.63-0.02-93.95,0.04
	c-1.89,0-3.19-0.55-4.53-1.9c-22.93-23.22-45.91-46.38-68.88-69.56c-1.99-2.01-5.13-1.97-7.1-0.01
	c-15.38,15.35-30.76,30.71-46.19,46.02c-8.03,7.97-16.17,15.83-24.2,23.8c-1.18,1.17-2.37,1.65-4.02,1.65
	c-15.28-0.05-30.55-0.05-45.83,0c-1.67,0.01-2.83-0.53-4.01-1.68c-10.24-9.98-20.54-19.9-30.82-29.85c-0.43-0.41-0.8-0.88-1.37-1.51
	c1.78,0,3.24,0,4.69,0c22.15-0.02,44.3-0.07,66.45-0.04c1.85,0,3.34-0.05,4.83-1.56c14.44-14.62,28.96-29.16,43.51-43.68
	c12.24-12.21,24.54-24.36,36.79-36.56c1.07-1.06,1.95-2.32,2.91-3.48C303.76,0,304.17,0,304.59,0z M298.34,600
	c0.28-0.45,0.48-0.99,0.85-1.35c12.59-12.55,25.22-25.06,37.79-37.62c15.03-15.02,30.01-30.09,45.06-45.09
	c0.74-0.73,2.01-1.32,3.03-1.32c16.66-0.04,33.33,0.03,49.99,0.06c7.31,0.01,14.61,0,22.08,0c-0.26-0.33-0.43-0.62-0.66-0.84
	c-10.61-10.3-21.21-20.62-31.9-30.84c-0.84-0.8-2.34-1.26-3.53-1.27c-14.3-0.09-28.61-0.1-42.91,0.01c-1.3,0.01-2.9,0.64-3.84,1.53
	c-13.02,12.3-25.95,24.7-38.9,37.07c-11.6,11.08-23.19,22.16-34.79,33.23c-1.42,1.35-4.97,1.27-6.47-0.18
	c-11.54-11.23-23.1-22.45-34.61-33.72c-12.4-12.14-24.78-24.31-37.12-36.52c-1.14-1.12-2.29-1.52-3.85-1.52
	c-31.18,0.04-62.36,0.03-93.54,0.03c-0.8,0-1.6,0-2.51,0c0-1.12,0-1.95,0-2.78c0-30.62,0.01-61.25-0.04-91.87
	c0-1-0.32-2.27-0.98-2.96c-16.36-17.21-32.76-34.37-49.19-51.51c-8.12-8.47-16.31-16.87-24.44-25.33c-2.1-2.18-2.13-5.43-0.18-7.4
	c18.17-18.36,36.32-36.74,54.49-55.09c6.11-6.17,12.31-12.24,18.37-18.45c0.93-0.96,1.87-2.43,1.89-3.68
	c0.15-10.83,0.11-21.67,0.04-32.5c0-0.78-0.42-1.77-0.97-2.32c-8.58-8.5-17.22-16.95-25.85-25.4c-1.85-1.81-3.73-3.58-5.96-5.73
	c0,1.92,0,3.34,0,4.76c0.01,16.39-0.02,32.78,0.08,49.17c0.01,2.11-0.5,3.66-1.99,5.16c-11.12,11.17-22.14,22.44-33.26,33.61
	c-17.25,17.32-34.55,34.58-51.84,51.86c-0.52,0.52-1.21,0.87-1.83,1.29c0,0.28,0,0.56,0,0.83c0.57,0.6,1.13,1.22,1.71,1.81
	c27.55,27.53,55.05,55.11,82.72,82.53c3.18,3.15,4.58,6.15,4.55,10.76c-0.24,37.7-0.14,75.4-0.16,113.1c0,3.05,0.05,3.15,3.13,3.15
	c38.39,0,76.78,0.02,115.16-0.06c2.78-0.01,4.63,0.7,6.6,2.82c4.61,4.98,9.76,9.46,14.57,14.26c22.33,22.25,44.61,44.54,66.91,66.82
	c0.42,0.42,0.7,0.98,1.05,1.47C297.51,600,297.92,600,298.34,600z M48.23,16.93c-12.65,12.84-24.9,25.29-37.31,37.89
	c181.55,176.77,362.89,353.33,544.24,529.9c12.58-12.8,24.82-25.26,37.27-37.93C410.91,370.05,229.58,193.5,48.23,16.93z
	 M154.51,221.55c-10.53,10.48-21.08,20.95-31.58,31.46c-15.27,15.27-30.49,30.59-45.77,45.85c-1.22,1.22-1.22,1.99,0,3.2
	c14.41,14.36,28.77,28.76,43.15,43.15c16.69,16.69,33.38,33.38,50.07,50.08c16.64,16.64,33.29,33.28,49.93,49.92
	c16.69,16.69,33.39,33.37,50.07,50.08c8.29,8.3,16.46,16.73,24.83,24.95c3.64,3.58,2.58,3.89,6.44,0.04
	c26.22-26.12,52.41-52.27,78.65-78.38c1.03-1.03,0.92-1.52-0.05-2.46c-15.63-15.1-31.21-30.23-46.82-45.35
	c-0.32-0.31-0.72-0.52-1.18-0.84c-0.76,1.75-1.39,3.35-2.14,4.9c-2.61,5.36,0.1,11.81,5.63,13.9c3.29,1.24,6.53,2.72,9.56,4.49
	c2.79,1.63,5.01,3.91,5.25,7.53c0.12,1.78,0.61,3.54,0.94,5.31c0.5,2.68,1.13,5.35,1.47,8.06c0.11,0.84-0.3,2-0.88,2.64
	c-2.48,2.71-5.04,5.35-7.73,7.85c-1.47,1.38-3.27,2.41-5.46,2.07c-1.47-0.23-2.03,0.41-2.42,1.8c-1.07,3.86-3.17,7.03-7.2,8.23
	c-2.02,0.6-4.23,0.62-6.36,0.8c-3.65,0.32-3.68,0.28-4.18,3.99c-0.17,1.25-0.69,2.03-2,1.74c-2.54-0.57-5.11-1.11-7.54-2
	c-0.86-0.31-1.55-1.49-2.01-2.43c-0.51-1.03-0.33-2.79-1.05-3.21c-0.85-0.5-2.34,0.15-3.56,0.2c-0.87,0.04-1.74-0.08-2.78-0.13
	c0.15,0.72,0.28,1.3,0.39,1.9c0.59,3.21-0.67,4.76-3.88,4.73c-1.11-0.01-2.22-0.08-3.33-0.11c-2.97-0.08-2.97-0.08-3.5-3.07
	c-0.56-3.1-1.39-3.48-4.15-1.86c-2.78,1.63-4.56,1.59-6.6-0.92c-1.67-2.06-3.22-4.43-4.04-6.92c-1.46-4.39-4.45-4.3-7.09-2.03
	c-0.37,0.32-0.74,0.77-1.17,0.84c-0.62,0.11-1.63,0.18-1.88-0.17c-1.07-1.5-2.42-3.06-2.74-4.77c-0.52-2.76-0.43-5.65-0.36-8.49
	c0.1-3.61,0.68-7.21,0.61-10.81c-0.08-4.44,1.48-8.19,4.16-11.48c2.1-2.57,4.56-4.84,6.9-7.2c1.01-1.02,1.79-1.96,1.53-3.62
	c-0.18-1.12,0.23-2.35,0.46-3.52c0.49-2.55,1.28-5.08,1.42-7.64c0.06-1.11-0.93-3-1.86-3.32c-4.44-1.52-8.96-3.06-13.58-3.74
	c-4.64-0.68-9.44-0.69-14.13-0.38c-5.37,0.36-10.7,1.33-16.02,2.21c-1.88,0.31-3.64,1.28-5.51,1.69c-2.36,0.52-4.79,0.73-7.18,1.15
	c-4.99,0.88-8.95-0.36-12.25-4.58c-3.71-4.75-6.16-10.17-9.16-15.3c-1.17-2.01-1.44-4.26-0.72-6.45c1.45-4.4,2.68-8.93,4.71-13.06
	c2.04-4.15,2.41-8.01,1.01-12.38c-1.66-5.2-3.13-10.44-3.3-16.03c-0.33-11.42-2.05-22.63-6.17-33.38c-0.92-2.39-1.89-4.81-2.35-7.31
	c-1.53-8.32-1.02-16.71-0.22-25.06c0.22-2.31-0.27-3.99-1.91-5.58c-6.13-5.94-12.15-12-18.28-17.95
	c-4.67-4.54-9.44-8.98-14.28-13.58C154.92,221.18,154.7,221.36,154.51,221.55z M447.1,374.77c25.75-25.8,51.51-51.59,77.32-77.32
	c1.38-1.37,1.19-2.12-0.04-3.34c-5.37-5.33-10.66-10.74-16.01-16.09c-26.31-26.3-52.65-52.59-78.96-78.89
	c-27.25-27.24-54.47-54.49-81.71-81.74c-14.28-14.29-28.57-28.56-42.8-42.91c-1.39-1.4-2.17-1.37-3.47,0.05
	c-2.16,2.35-4.56,4.47-6.82,6.72c-25.14,25.13-50.27,50.27-75.42,75.39c-0.78,0.78-0.8,1.26,0,2.02c2.67,2.53,5.26,5.14,7.93,7.68
	c3.1,2.95,3.09,2.91,6.32,0c1.68-1.51,3.35-3.12,5.26-4.3c2.98-1.84,6.15-3.37,9.25-5.01c0.49-0.26,1.02-0.44,1.54-0.62
	c4.76-1.66,9.59-3.15,14.25-5.04c2.25-0.91,4.4-1.52,6.8-1.41c0.71,0.03,1.8-0.05,2.08-0.49c0.96-1.48,2.35-1.5,3.81-1.63
	c1.59-0.14,3.21-0.26,4.73-0.7c6.45-1.87,13.01-2.57,19.71-2.42c6.38,0.15,12.77,0.09,19.16,0.3c9.42,0.31,18.34,2.6,26.61,7.21
	c2,1.11,3.98,2.25,6.03,3.28c9.9,4.98,19.21,10.79,26.91,18.89c1.81,1.91,3.72,3.76,5.3,5.86c4.27,5.63,8.25,11.49,12.6,17.06
	c4.97,6.38,7.49,13.86,9.94,21.34c1.18,3.58,2.1,7.44,2.1,11.17c0.01,11.07,0.94,22.15-0.72,33.21c-0.96,6.43-0.91,13.01-1.76,19.47
	c-0.54,4.1-2.12,8.05-2.84,12.13c-0.87,4.97-1.37,10.01-1.91,15.03c-0.1,0.9,0.23,1.96,0.67,2.79c2.09,3.91,3.98,7.97,6.52,11.57
	c4.37,6.2,6.51,12.69,4.21,20.15c-0.73,2.36,0.1,3.94,1.74,5.52c7.37,7.06,14.68,14.18,22.02,21.27c2.24,2.16,4.52,4.28,7.19,6.81
	C445.53,376.7,446.23,375.64,447.1,374.77z M260.26,366.95c4.07,0.08,7.31-2.33,10.84-3.73c2.89-1.15,5.66-2.98,8-5.05
	c2.57-2.28,4.56-5.2,6.84-7.81c0.87-1,0.74-1.73-0.2-2.65c-12.15-11.88-24.32-23.76-36.37-35.75c-2-1.99-4.02-2.38-6.57-1.84
	c-5.34,1.14-10.72,2.13-16.04,3.35c-1.11,0.25-2.29,1.04-3.02,1.92c-1.76,2.13-3.3,4.45-4.89,6.72c-1.92,2.74-3.52,5.61-4.13,8.99
	c-0.23,1.28-1.14,2.42-1.69,3.65c-0.33,0.74-0.81,1.51-0.82,2.27c-0.16,7.64,1.95,14.64,6.18,21c0.29,0.43,0.74,0.82,1.21,1.04
	c1.52,0.72,3.24,1.12,4.58,2.07c3.7,2.59,7.69,4.23,12.1,5.26c2.37,0.55,4.48-0.18,6.71-0.04c3.18,0.19,6.37,0.37,9.99,0.59
	C255.13,366.94,257.7,366.9,260.26,366.95z M292.52,370.18c-2.39,5.2-4.06,10.72-6.27,16c-1.85,4.4-3.27,8.82-2.94,13.66
	c0.04,0.55-0.05,1.11-0.17,1.65c-0.52,2.41-0.34,4.63,1.28,6.68c0.57,0.71,0.78,1.75,1.03,2.67c0.73,2.7,1.83,5.05,4.6,6.29
	c2.73,1.22,5.52,2.01,8.47,1.15c2.92-0.85,4.97-2.63,6.25-5.57c1.08-2.5,2.47-2.49,4.39-0.51c0.39,0.4,0.76,0.81,1.16,1.19
	c2.52,2.43,4.38,2.54,6.78-0.02c1.93-2.06,3.62-4.38,5.26-6.69c0.57-0.81,0.92-1.9,1.02-2.9c0.47-4.55,0.74-9.12,1.22-13.67
	c0.32-3.01-0.63-5.43-2.77-7.49c-3.94-3.81-7.85-7.66-11.79-11.46c-3.64-3.5-7.32-6.96-11.36-10.8
	C296.49,363.78,294.08,366.78,292.52,370.18z"/>
</svg>
